SplineFontDB: 3.0
FontName: Spleenmedium
FullName: Spleen medium
FamilyName: Spleen
Weight: Medium
Copyright: Copyright (c) 2018, Frederic Cambus
UComments: "2019-1-16: Created with FontForge (http://fontforge.org)"
Version: 001.000
ItalicAngle: 0
UnderlinePosition: -100
UnderlineWidth: 50
Ascent: 800
Descent: 200
InvalidEm: 0
LayerCount: 2
Layer: 0 0 "Back" 1
Layer: 1 0 "Fore" 0
XUID: [1021 472 723692600 24024]
StyleMap: 0x0000
FSType: 0
OS2Version: 0
OS2_WeightWidthSlopeOnly: 0
OS2_UseTypoMetrics: 1
CreationTime: 1547675648
ModificationTime: 1547857926
PfmFamily: 17
TTFWeight: 500
TTFWidth: 5
LineGap: 90
VLineGap: 90
OS2TypoAscent: 0
OS2TypoAOffset: 1
OS2TypoDescent: 0
OS2TypoDOffset: 1
OS2TypoLinegap: 90
OS2WinAscent: 0
OS2WinAOffset: 1
OS2WinDescent: 0
OS2WinDOffset: 1
HheadAscent: 0
HheadAOffset: 1
HheadDescent: 0
HheadDOffset: 1
OS2Vendor: 'PfEd'
MarkAttachClasses: 1
DEI: 91125
LangName: 1033
Encoding: ISO8859-1
UnicodeInterp: none
NameList: AGL For New Fonts
DisplaySize: 64
AntiAlias: 1
FitToEm: 0
WinInfo: 0 38 16
BeginPrivate: 0
EndPrivate
Grid
-651 1300 m 0
 -651 -700 l 1024
0 625 m 29
 500 625 l 1053
  Named: "Upper"
0 437 m 25
 500 437 l 1049
  Named: "Small"
EndSplineSet
TeXData: 1 0 0 524288 262144 174762 0 1048576 174762 783286 444596 497025 792723 393216 433062 380633 303038 157286 324010 404750 52429 2506097 1059062 262144
BeginChars: 256 192

StartChar: EXCLAMATION
Encoding: 33 33 1
Width: 500
VWidth: 0
Flags: W
HStem: 1 92<219 281> 605 20G<219 281>
VStem: 219 62<1 93 188 625>
LayerCount: 2
Back
Fore
SplineSet
219 93 m 1
 281 93 l 1
 281 1 l 1
 219 1 l 1
 219 93 l 1
219 625 m 1
 281 625 l 1
 281 188 l 1
 219 188 l 1
 219 625 l 1
EndSplineSet
Validated: 1
EndChar

StartChar: QUOTATION
Encoding: 34 34 2
Width: 500
VWidth: 0
Flags: W
HStem: 437 250<94 156 344 406>
VStem: 94 62<437 687> 344 62<437 687>
LayerCount: 2
Back
Fore
SplineSet
344 687 m 25
 406 687 l 25
 406 437 l 25
 344 437 l 25
 344 687 l 25
94 687 m 25
 156 687 l 25
 156 437 l 25
 94 437 l 25
 94 687 l 25
EndSplineSet
Validated: 1
EndChar

StartChar: NUMBER
Encoding: 35 35 3
Width: 500
VWidth: 0
Flags: W
HStem: 0 21G<94 156 344 406> 125 62<31 94 156 344 406 469> 437 62<31 94 156 344 406 469> 604 20G<94 156 344 406>
VStem: 94 62<0 125 187 437 499 624> 344 62<0 125 187 437 499 624>
LayerCount: 2
Back
Fore
SplineSet
94 624 m 1
 156 624 l 1
 156 499 l 1
 344 499 l 1
 344 624 l 1
 406 624 l 1
 406 499 l 1
 469 499 l 1
 469 437 l 1
 406 437 l 1
 406 187 l 1
 469 187 l 1
 469 125 l 1
 406 125 l 1
 406 0 l 1
 344 0 l 1
 344 125 l 1
 156 125 l 1
 156 0 l 1
 94 0 l 1
 94 125 l 1
 31 125 l 1
 31 187 l 1
 94 187 l 1
 94 437 l 1
 31 437 l 1
 31 499 l 1
 94 499 l 1
 94 624 l 1
344 437 m 1
 156 437 l 1
 156 187 l 1
 344 187 l 1
 344 437 l 1
EndSplineSet
Validated: 1
EndChar

StartChar: DOLLAR
Encoding: 36 36 4
Width: 500
VWidth: 0
Flags: W
HStem: 0 62<63 217 279 366.91> 312 62<132.857 217 279 366.668> 562 62<132.083 217 279 437>
VStem: 62 63<382.073 554.126> 217 62<-62 0 62 312 374 562 624 687> 375 62<70.0731 302.314>
LayerCount: 2
Back
Fore
SplineSet
217 687 m 1
 279 687 l 1
 279 624 l 1
 437 624 l 1
 437 562 l 1
 279 562 l 1
 279 374 l 1
 359 374 l 2
 392 374 436 329 437 296 c 0
 438 261 438 201 438 171 c 0
 438 142 438 113 437 78 c 0
 436 45 392 0 359 0 c 2
 279 0 l 1
 279 -62 l 1
 217 -62 l 1
 217 -0 l 1
 63 0 l 1
 63 62 l 1
 217 62 l 1
 217 312 l 1
 141 312 l 2
 107 312 62 357 62 390 c 0
 62 460 62 476 62 546 c 0
 62 580 107 624 140 624 c 2
 217 624 l 1
 217 687 l 1
217 562 m 1
 176 562 l 2
 144 562 125 543 125 511 c 0
 125 451 125 486 125 426 c 0
 125 394 144 374 176 374 c 2
 217 374 l 1
 217 562 l 1
279 62 m 1
 322 62 l 2
 355 62 375 82 375 114 c 0
 375 174 375 200 375 260 c 0
 375 292 354 312 322 312 c 2
 279 312 l 1
 279 62 l 1
EndSplineSet
Validated: 1
EndChar

StartChar: PERCENT
Encoding: 37 37 5
Width: 500
VWidth: 0
Flags: W
HStem: 1 21G<79 141.966> 31 31<328 360> 156 31<328 360> 437 31<140 172> 562 31<140 172> 605 20G<349.378 422>
VStem: 78 62<468.581 561.071> 172 62<468.929 561.071> 266 62<62.5805 155.071> 360 62<62.929 155.071>
LayerCount: 2
Back
Fore
SplineSet
422 625 m 1
 422 583 l 1
 132 1 l 1
 79 1 l 1
 79 43 l 1
 359 625 l 1
 422 625 l 1
360 62 m 1
 360 156 l 1
 328 156 l 1
 328 62 l 1
 360 62 l 1
317 187 m 0
 353 187 335 187 371 187 c 0
 403 187 422 168 422 136 c 0
 422 100 422 118 422 82 c 0
 422 50 403 31 371 31 c 0
 335 31 353 31 317 31 c 0
 285 31 266 51 266 83 c 0
 266 118 266 101 266 136 c 0
 266 168 285 187 317 187 c 0
172 468 m 1
 172 562 l 1
 140 562 l 1
 140 468 l 1
 172 468 l 1
129 593 m 0
 165 593 147 593 183 593 c 0
 215 593 234 574 234 542 c 0
 234 506 234 524 234 488 c 0
 234 456 215 437 183 437 c 0
 147 437 165 437 129 437 c 0
 97 437 78 457 78 489 c 0
 78 524 78 507 78 542 c 0
 78 574 97 593 129 593 c 0
EndSplineSet
Validated: 1
EndChar

StartChar: AMPERSAND
Encoding: 38 38 6
Width: 500
VWidth: 0
Flags: W
HStem: 0 62<101.857 304.736> 250 62<101.857 156> 312 62<281 335.927> 563 61<164.068 335.927>
VStem: 31 63<70.0731 241.927> 93 63<382.364 553.927> 344 62<382.073 553.927>
LayerCount: 2
Back
Fore
SplineSet
145 250 m 0xda
 113 250 94 230 94 198 c 0
 94 150 94 161 94 113 c 0
 94 81 113 62 145 62 c 0
 205 62 201 62 261 62 c 0
 293 62 313 81 313 113 c 0
 313 149 313 131 313 157 c 0
 313 202 265 250 220 250 c 0
 182 250 193 250 145 250 c 0xda
209 563 m 0
 176 563 156 544 156 511 c 0
 156 463 156 474 156 426 c 0
 156 394 176 374 208 374 c 0
 256 374 245 374 293 374 c 0xb6
 325 374 344 394 344 426 c 0
 344 474 344 463 344 511 c 0
 344 543 324 563 292 563 c 0
 245 563 256 563 209 563 c 0
359 62 m 0
 359 41 317 0 296 0 c 0
 226 0 180 0 110 0 c 0
 76 0 31 45 31 78 c 0
 31 136 31 176 31 234 c 0xda
 31 267 76 312 110 312 c 0
 125 312 156 312 156 312 c 1xd6
 156 327 l 0
 121 327 93 366 93 391 c 0
 93 449 93 489 93 546 c 0
 93 579 139 624 172 624 c 0
 230 624 270 624 328 624 c 0
 361 624 406 579 406 546 c 0
 406 488 406 448 406 390 c 0
 406 357 361 312 328 312 c 0
 312 312 281 312 281 312 c 25xb6
 281 312 281 297 281 297 c 0
 309 297 359 238 359 218 c 0
 360 218 391 250 391 250 c 9
 438 250 l 25xd6
 438 203 l 25
 375 141 l 25
 469 46 l 25
 469 0 l 25
 422 0 l 25
 359 62 l 0
EndSplineSet
Validated: 1
EndChar

StartChar: APOSTROPHE
Encoding: 39 39 7
Width: 500
VWidth: 0
Flags: W
HStem: 437 250<219 281>
VStem: 219 62<437 687>
LayerCount: 2
Back
Fore
SplineSet
219 687 m 25
 281 687 l 25
 281 437 l 25
 219 437 l 25
 219 687 l 25
EndSplineSet
Validated: 1
EndChar

StartChar: LEFT
Encoding: 40 40 8
Width: 500
VWidth: 0
Flags: W
HStem: -125 62<297.355 437> 687 63<300.975 437>
VStem: 77 64<141.693 485.411>
LayerCount: 2
Back
Fore
SplineSet
342 750 m 0
 379 750 437 750 437 750 c 25
 437 687 l 25
 437 687 390 687 364 687 c 0
 315 687 262 643 220 592 c 0
 185 550 141 452 141 396 c 0
 141 329 141 306 141 239 c 0
 141 183 175 95 220 33 c 0
 258 -21 315 -63 364 -63 c 0
 390 -63 437 -63 437 -63 c 25
 437 -125 l 25
 437 -125 379 -125 342 -125 c 0
 280 -125 205 -70 157 0 c 0
 109 68 77 142 77 197 c 0
 77 287 77 337 77 427 c 0
 77 483 108 555 156 624 c 0
 207 694 285 750 342 750 c 0
EndSplineSet
Validated: 1
EndChar

StartChar: RIGHT
Encoding: 41 41 9
Width: 500
VWidth: 0
Flags: W
HStem: -125 62<77 216.645> 687 63<77 213.025>
VStem: 373 64<141.693 485.411>
LayerCount: 2
Back
Fore
SplineSet
172 750 m 0
 229 750 307 694 358 624 c 0
 406 555 437 483 437 427 c 0
 437 337 437 287 437 197 c 0
 437 142 405 68 357 0 c 0
 309 -70 234 -125 172 -125 c 0
 135 -125 77 -125 77 -125 c 25
 77 -63 l 25
 77 -63 124 -63 150 -63 c 0
 199 -63 256 -21 294 33 c 0
 339 95 373 183 373 239 c 0
 373 306 373 329 373 396 c 0
 373 452 329 550 294 592 c 0
 252 643 199 687 150 687 c 0
 124 687 77 687 77 687 c 25
 77 750 l 25
 77 750 135 750 172 750 c 0
EndSplineSet
Validated: 1
EndChar

StartChar: ASTERISK
Encoding: 42 42 10
Width: 500
VWidth: 0
Flags: W
HStem: 250 62<31 188 312 469>
VStem: 94 62<62 93 468 500> 188 124<219 250 312 343> 344 62<62 93 468 500>
CounterMasks: 1 70
LayerCount: 2
Back
Fore
SplineSet
94 500 m 25
 156 500 l 25
 156 468 l 25
 235 390 l 25
 265 390 l 25
 344 468 l 25
 344 500 l 25
 406 500 l 25
 406 437 l 25
 312 343 l 25
 312 312 l 25
 469 312 l 25
 469 250 l 25
 312 250 l 25
 312 219 l 25
 406 125 l 25
 406 62 l 25
 344 62 l 25
 344 93 l 25
 265 172 l 25
 235 172 l 25
 156 93 l 25
 156 62 l 25
 94 62 l 25
 94 124 l 25
 188 219 l 25
 188 250 l 25
 31 250 l 25
 31 312 l 25
 188 312 l 25
 188 343 l 25
 94 437 l 25
 94 500 l 25
EndSplineSet
Validated: 1
EndChar

StartChar: PLUS
Encoding: 43 43 11
Width: 500
VWidth: 0
Flags: W
HStem: 250 62<94 219 281 406> 417 20G<219 281>
VStem: 219 62<125 250 312 437>
LayerCount: 2
Back
Fore
SplineSet
219 437 m 25
 281 437 l 25
 281 312 l 25
 406 312 l 25
 406 250 l 25
 281 250 l 25
 281 125 l 25
 219 125 l 25
 219 250 l 25
 94 250 l 25
 94 312 l 25
 219 312 l 25
 219 437 l 25
EndSplineSet
Validated: 1
EndChar

StartChar: COMMA
Encoding: 44 44 12
Width: 500
VWidth: 0
Flags: W
HStem: -62 62<156 210.917>
VStem: 218 64<7.09044 124>
LayerCount: 2
Back
Fore
SplineSet
218 124 m 25
 282 124 l 25
 282 124 282 54 282 15 c 0
 282 -18 236 -62 203 -62 c 0
 187 -62 156 -62 156 -62 c 25
 156 0 l 25
 156 0 156 0 167 0 c 0
 199 0 218 19 218 51 c 0
 218 86 218 124 218 124 c 25
EndSplineSet
Validated: 1
EndChar

StartChar: HYPHEN-MINUS
Encoding: 45 45 13
Width: 500
VWidth: 0
Flags: W
HStem: 250 62<62 438>
LayerCount: 2
Back
Fore
SplineSet
62 312 m 1
 438 312 l 1
 438 250 l 1
 62 250 l 1
 62 312 l 1
EndSplineSet
Validated: 513
EndChar

StartChar: FULL
Encoding: 46 46 14
Width: 500
VWidth: 0
Flags: W
HStem: 0 93<219 281>
VStem: 219 62<0 93>
LayerCount: 2
Back
Fore
SplineSet
219 93 m 1
 281 93 l 1
 281 0 l 1
 219 0 l 1
 219 93 l 1
EndSplineSet
Validated: 1
EndChar

StartChar: SOLIDUS
Encoding: 47 47 15
Width: 500
VWidth: 0
Flags: W
LayerCount: 2
Back
Fore
SplineSet
469 708 m 1
 469 666 l 1
 84 -84 l 1
 31 -84 l 1
 31 -42 l 1
 406 708 l 1
 469 708 l 1
EndSplineSet
Validated: 1
EndChar

StartChar: DIGIT
Encoding: 48 48 16
Width: 500
VWidth: 0
Flags: W
HStem: 1 62<133.073 366.944> 563 62<133.073 367.917>
VStem: 63 62<71.0731 140 249 554.927> 375 63<71.0731 390 499 554.927>
LayerCount: 2
Back
Fore
SplineSet
141 625 m 0
 224 625 277 625 360 625 c 0
 393 625 438 580 438 547 c 0
 438 366 438 260 438 79 c 0
 438 46 392 1 359 1 c 0
 277 1 223 1 141 1 c 0
 108 1 63 46 63 79 c 0
 63 260 63 366 63 547 c 0
 63 580 108 625 141 625 c 0
176 563 m 0
 144 563 125 544 125 512 c 2
 125 249 l 1
 375 499 l 1
 375 512 l 2
 375 544 356 563 324 563 c 0
 251 563 249 563 176 563 c 0
125 140 m 1
 125 114 l 2
 125 82 145 63 177 63 c 0
 249 63 252 63 324 63 c 0
 356 63 375 82 375 114 c 2
 375 390 l 1
 125 140 l 1
EndSplineSet
Validated: 1
EndChar

StartChar: DIGIT
Encoding: 49 49 17
Width: 500
VWidth: 0
Flags: W
HStem: 0 62<94 219 281 406> 605 20G<168 281>
VStem: 219 62<62 563>
LayerCount: 2
Back
Fore
SplineSet
94 468 m 25
 94 531 l 25
 188 625 l 25
 281 625 l 25
 281 62 l 25
 406 62 l 25
 406 0 l 25
 94 0 l 25
 94 62 l 25
 219 62 l 25
 219 563 l 25
 125 468 l 25
 94 468 l 25
EndSplineSet
Validated: 1
EndChar

StartChar: DIGIT
Encoding: 50 50 18
Width: 500
VWidth: 0
Flags: W
HStem: 0 124<375 438> 0 62<125 375> 562 63<133.056 366.91>
VStem: 63 62<62 93 500 553.479> 375 62<62 124 437 553.944>
LayerCount: 2
Back
Fore
SplineSet
62 500 m 25x78
 62 500 62 532 62 547 c 0
 62 581 108 625 141 625 c 0
 223 625 277 625 359 625 c 0
 392 625 436 579 437 546 c 0
 437 531 437 518 437 505 c 0
 437 478 437 454 437 422 c 0
 437 410 421 390 406 375 c 0
 296 265 125 93 125 93 c 25
 125 62 l 25
 375 62 l 25x78
 375 124 l 25
 438 124 l 25
 438 0 l 25xb8
 63 0 l 25
 63 125 l 25
 375 437 l 25
 375 437 375 475 375 511 c 0
 375 543 356 562 324 562 c 0
 251 562 249 562 176 562 c 0
 144 562 125 543 125 511 c 0
 125 500 125 500 125 500 c 25
 62 500 l 25x78
EndSplineSet
Validated: 1
EndChar

StartChar: DIGIT
Encoding: 51 51 19
Width: 500
VWidth: 0
Flags: W
HStem: 0 62<133.056 367.917> 312 63<156 367.301> 562 63<133.056 366.927>
VStem: 62 63<69.8739 124 500 554.143> 375 63<70.0731 304.265 383.154 554.143>
LayerCount: 2
Back
Fore
SplineSet
62 500 m 25
 62 500 62 531 62 546 c 0
 62 580 108 625 141 625 c 0
 223 625 277 625 359 625 c 0
 392 625 437 580 437 546 c 0
 437 495 437 458 437 406 c 0
 437 363 396 348 396 348 c 25
 396 348 438 327 438 281 c 0
 438 204 438 154 438 78 c 0
 438 45 393 0 360 0 c 0
 277 0 224 0 141 0 c 0
 108 0 62 44 62 78 c 0
 62 93 62 124 62 124 c 25
 125 124 l 25
 125 124 125 124 125 113 c 0
 125 81 144 62 176 62 c 0
 249 62 251 62 324 62 c 0
 356 62 375 81 375 113 c 0
 375 186 375 188 375 261 c 0
 375 293 356 312 324 312 c 0
 251 312 156 312 156 312 c 25
 156 375 l 25
 156 375 251 375 324 375 c 0
 355 375 375 394 375 426 c 0
 375 474 375 463 375 511 c 0
 375 543 355 562 323 562 c 0
 251 562 248 562 176 562 c 0
 144 562 125 543 125 511 c 0
 125 500 125 500 125 500 c 25
 62 500 l 25
EndSplineSet
Validated: 1
EndChar

StartChar: DIGIT
Encoding: 52 52 20
Width: 500
VWidth: 0
Flags: W
HStem: 0 21G<312 374> 187 63<124 312 374 438> 604 20G<62 124>
VStem: 62 62<250 624> 312 62<0 187 250 499>
LayerCount: 2
Back
Fore
SplineSet
62 624 m 1
 124 624 l 1
 124 250 l 1
 312 250 l 1
 312 499 l 1
 374 499 l 1
 374 250 l 1
 438 250 l 1
 438 187 l 1
 374 187 l 1
 374 0 l 1
 312 0 l 1
 312 187 l 1
 124 187 l 1
 62 187 l 1
 62 250 l 1
 62 624 l 1
EndSplineSet
Validated: 1
EndChar

StartChar: DIGIT
Encoding: 53 53 21
Width: 500
VWidth: 0
Flags: W
HStem: 0 63<133.056 366.91> 312 62<125 367.581> 501 124<375 438> 563 62<125 375>
VStem: 63 62<71.521 125 374 563> 375 62<71.0557 303.797 501 563>
LayerCount: 2
Back
Fore
SplineSet
62 125 m 25xdc
 125 125 l 25
 125 125 125 125 125 114 c 0
 125 82 144 63 176 63 c 0
 249 63 251 63 324 63 c 0
 356 63 375 82 375 114 c 0
 375 150 375 197 375 261 c 0
 375 293 356 312 324 312 c 0
 215 312 63 312 63 312 c 9
 63 625 l 25xdc
 438 625 l 25
 438 501 l 25
 375 501 l 25xec
 375 563 l 25
 125 563 l 25
 125 374 l 1
 125 374 307 374 359 374 c 1
 382 374 437 338 437 296 c 0
 437 281 437 215 437 203 c 0
 437 171 437 147 437 120 c 0
 437 107 437 94 437 79 c 0
 436 46 392 0 359 0 c 0
 277 0 223 0 141 0 c 0
 108 0 62 44 62 78 c 0
 62 93 62 125 62 125 c 25xdc
EndSplineSet
Validated: 1
EndChar

StartChar: DIGIT
Encoding: 54 54 22
Width: 500
VWidth: 0
Flags: W
HStem: 0 62<132.697 367.71> 312 62<124 366.927> 562 63<132.073 366.944>
VStem: 62 62<70.0731 312 374 553.944> 375 62<69.2896 304.71 500 554.143>
LayerCount: 2
Back
Fore
SplineSet
124 312 m 25
 124 312 124 198 124 114 c 0
 124 82 143 62 175 62 c 0
 248 62 251 62 324 62 c 0
 356 62 375 81 375 113 c 0
 375 186 375 188 375 261 c 0
 375 293 356 312 324 312 c 0
 239 312 124 312 124 312 c 25
140 625 m 0
 222 625 277 625 359 625 c 0
 392 625 438 580 438 546 c 0
 438 531 438 500 438 500 c 25
 375 500 l 25
 375 500 375 500 375 511 c 0
 375 543 356 562 324 562 c 0
 251 562 248 562 175 562 c 0
 143 562 124 543 124 511 c 0
 124 451 124 374 124 374 c 25
 124 374 270 374 359 374 c 0
 392 374 437 329 437 297 c 0
 437 214 437 160 437 77 c 0
 437 45 392 0 360 0 c 0
 277 0 222 0 139 0 c 0
 106 0 62 45 62 78 c 0
 62 259 62 365 62 546 c 0
 62 579 107 625 140 625 c 0
EndSplineSet
Validated: 1
EndChar

StartChar: DIGIT
Encoding: 55 55 23
Width: 500
VWidth: 0
Flags: W
HStem: 0 21G<188 250> 500 125<62 124> 562 63<124 376>
VStem: 62 62<500 562> 188 62<0 218> 376 62<437 562>
LayerCount: 2
Back
Fore
SplineSet
62 500 m 25xdc
 62 625 l 25xdc
 438 625 l 25
 438 406 l 25
 250 218 l 25
 250 0 l 25
 188 0 l 25
 188 250 l 25
 376 437 l 25
 376 562 l 25
 124 562 l 25xbc
 124 500 l 25
 62 500 l 25xdc
EndSplineSet
Validated: 1
EndChar

StartChar: DIGIT
Encoding: 56 56 24
Width: 500
VWidth: 0
Flags: W
HStem: 0 62<132.073 366.944> 312 62<131.699 367.917> 563 62<132.073 367.917>
VStem: 62 62<70.0731 304.622 382.109 554.927> 375 63<70.0731 304.708 381.378 554.927>
LayerCount: 2
Back
Fore
SplineSet
140 625 m 0
 223 625 277 625 360 625 c 0
 393 625 438 580 438 547 c 2
 438 390 l 2
 438 375 429 358 415 343 c 1
 429 329 438 311 438 296 c 0
 438 115 438 259 438 78 c 0
 438 45 392 0 359 0 c 0
 277 0 222 0 140 0 c 0
 107 0 62 45 62 78 c 0
 62 259 62 115 62 296 c 0
 62 311 71 328 84 343 c 1
 71 358 62 375 62 390 c 2
 62 547 l 2
 62 580 107 625 140 625 c 0
175 563 m 0
 143 563 124 544 124 512 c 2
 124 425 l 2
 124 393 144 374 176 374 c 2
 324 374 l 2
 356 374 375 393 375 425 c 2
 375 512 l 2
 375 544 356 563 324 563 c 0
 251 563 248 563 175 563 c 0
324 312 m 2
 175 312 l 2
 143 312 124 293 124 261 c 2
 124 113 l 2
 124 81 144 62 176 62 c 0
 248 62 252 62 324 62 c 0
 356 62 375 81 375 113 c 2
 375 261 l 2
 375 293 356 312 324 312 c 2
EndSplineSet
Validated: 1
EndChar

StartChar: DIGIT
Encoding: 57 57 25
Width: 500
VWidth: 0
Flags: W
HStem: 0 62<133.056 367.927> 251 62<133.073 376> 563 62<132.29 367.303>
VStem: 63 62<69.8739 124 320.29 555.71> 376 62<70.0731 251 313 554.927>
LayerCount: 2
Back
Fore
SplineSet
376 313 m 25
 376 313 376 427 376 511 c 0
 376 543 357 563 325 563 c 0
 252 563 249 563 176 563 c 0
 144 563 125 544 125 512 c 0
 125 439 125 437 125 364 c 0
 125 332 144 313 176 313 c 0
 261 313 376 313 376 313 c 25
360 0 m 0
 278 0 223 0 141 0 c 0
 108 0 62 44 62 78 c 0
 62 93 62 124 62 124 c 25
 125 124 l 25
 125 124 125 124 125 113 c 0
 125 81 144 62 176 62 c 0
 249 62 252 62 325 62 c 0
 357 62 376 81 376 113 c 0
 376 173 376 251 376 251 c 25
 376 251 230 251 141 251 c 0
 108 251 63 296 63 328 c 0
 63 411 63 465 63 548 c 0
 63 580 108 625 140 625 c 0
 223 625 278 625 361 625 c 0
 394 625 438 580 438 547 c 0
 438 366 438 259 438 78 c 0
 438 45 393 0 360 0 c 0
EndSplineSet
Validated: 1
EndChar

StartChar: COLON
Encoding: 58 58 26
Width: 500
VWidth: 0
Flags: W
HStem: 0 93<219 281> 312 93<219 281>
VStem: 219 62<0 93 312 405>
LayerCount: 2
Back
Fore
SplineSet
219 93 m 1
 281 93 l 1
 281 0 l 1
 219 0 l 1
 219 93 l 1
219 405 m 1
 281 405 l 1
 281 312 l 1
 219 312 l 1
 219 405 l 1
EndSplineSet
Validated: 1
EndChar

StartChar: SEMICOLON
Encoding: 59 59 27
Width: 500
VWidth: 0
Flags: W
HStem: -62 62<156 210.917> 312 93<219 281>
VStem: 218 64<7.09044 124 312 405>
LayerCount: 2
Back
Fore
SplineSet
218 124 m 25
 282 124 l 25
 282 124 282 54 282 15 c 0
 282 -18 236 -62 203 -62 c 0
 187 -62 156 -62 156 -62 c 25
 156 0 l 25
 156 0 156 0 167 0 c 0
 199 0 218 19 218 51 c 0
 218 86 218 124 218 124 c 25
219 405 m 1
 281 405 l 1
 281 312 l 1
 219 312 l 1
 219 405 l 1
EndSplineSet
Validated: 1
EndChar

StartChar: LESS-THAN
Encoding: 60 60 28
Width: 500
VWidth: 0
Flags: W
HStem: 0 21G<321.53 437>
VStem: 62 94<251 313>
LayerCount: 2
Back
Fore
SplineSet
344 565 m 25
 438 565 l 25
 156 313 l 25
 156 251 l 25
 437 0 l 25
 344 0 l 25
 62 251 l 25
 62 313 l 25
 344 565 l 25
EndSplineSet
Validated: 513
EndChar

StartChar: EQUALS
Encoding: 61 61 29
Width: 500
VWidth: 0
Flags: W
HStem: 175 62<62 438> 363 62<62 438>
LayerCount: 2
Back
Fore
SplineSet
62 237 m 1
 438 237 l 1
 438 175 l 1
 62 175 l 1
 62 237 l 1
62 425 m 1
 438 425 l 1
 438 363 l 1
 62 363 l 1
 62 425 l 1
EndSplineSet
Validated: 1
EndChar

StartChar: GREATER-THAN
Encoding: 62 62 30
Width: 500
VWidth: 0
Flags: W
HStem: 0 21G<63 178.47>
VStem: 344 94<251 313>
LayerCount: 2
Back
Fore
SplineSet
156 565 m 25
 438 313 l 25
 438 251 l 25
 156 0 l 25
 63 0 l 25
 344 251 l 25
 344 313 l 25
 62 565 l 25
 156 565 l 25
EndSplineSet
Validated: 513
EndChar

StartChar: QUESTION
Encoding: 63 63 31
Width: 500
VWidth: 0
Flags: W
HStem: 0 93<219 281> 562 63<133.056 366.944>
VStem: 62 63<500 554.143> 219 62<0 93 187 297.467> 375 63<431.418 553.944>
CounterMasks: 1 38
LayerCount: 2
Back
Fore
SplineSet
141 625 m 0
 223 625 277 625 359 625 c 0
 392 625 438 579 438 546 c 0
 438 507 438 501 438 462 c 0
 438 430 380 380 344 343 c 0
 297 294 281 284 281 220 c 0
 281 208 281 187 281 187 c 25
 219 187 l 25
 219 187 219 226 219 249 c 0
 219 270 238 313 266 343 c 0
 307 387 375 442 375 468 c 0
 375 487 375 482 375 511 c 0
 375 543 356 562 324 562 c 0
 251 562 249 562 176 562 c 0
 144 562 125 543 125 511 c 0
 125 500 125 500 125 500 c 25
 62 500 l 25
 62 500 62 531 62 546 c 0
 62 580 108 625 141 625 c 0
219 93 m 1
 281 93 l 1
 281 0 l 1
 219 0 l 1
 219 93 l 1
EndSplineSet
Validated: 1
EndChar

StartChar: COMMERCIAL
Encoding: 64 64 32
Width: 500
VWidth: 0
Flags: W
HStem: 0 62<133.073 406> 156 62<312 375> 500 62<133.073 366.927>
VStem: 63 62<69.8739 492.126> 218 94<218 406> 375 62<218 491.927>
LayerCount: 2
Back
Fore
SplineSet
141 562 m 0
 223 562 277 562 359 562 c 0
 392 562 437 517 437 484 c 0
 437 358 437 156 437 156 c 25
 218 156 l 25
 218 406 l 25
 312 406 l 25
 312 218 l 25
 375 218 l 25
 375 218 375 351 375 448 c 0
 375 481 355 500 323 500 c 0
 251 500 248 500 176 500 c 0
 144 500 125 480 125 448 c 0
 125 303 125 259 125 114 c 0
 125 82 144 62 176 62 c 0
 273 62 406 62 406 62 c 25
 406 0 l 25
 406 0 242 0 141 0 c 0
 108 0 63 44 63 78 c 0
 62 156 62 218 62 281 c 0
 62 344 62 406 63 484 c 0
 63 518 108 562 141 562 c 0
EndSplineSet
Validated: 1
EndChar

StartChar: LATIN
Encoding: 65 65 33
Width: 500
VWidth: 0
Flags: W
HStem: 0 21G<62 124 375 438> 282 62<124 375> 563 62<131.425 367.917>
VStem: 62 62<0 282 344 554.303> 375 63<0 282 344 554.927>
LayerCount: 2
Back
Fore
SplineSet
124 344 m 25
 375 344 l 25
 375 344 375 439 375 512 c 0
 375 544 356 563 324 563 c 0
 252 563 249 563 177 563 c 0
 144 563 124 545 124 512 c 0
 124 439 124 344 124 344 c 25
62 0 m 25
 62 0 62 336 62 548 c 0
 62 581 108 625 141 625 c 0
 224 625 277 625 360 625 c 0
 393 625 438 580 438 547 c 0
 438 335 438 0 438 0 c 1
 375 0 l 1
 375 282 l 1
 124 282 l 1
 124 0 l 1
 62 0 l 25
EndSplineSet
Validated: 2097153
EndChar

StartChar: LATIN
Encoding: 66 66 34
Width: 500
VWidth: 0
Flags: W
HStem: 1 62<124 366.314> 313 62<125 367.301> 563 62<125 367.917>
VStem: 63 61<63 313 375 563> 375 63<71.2723 304.662 382.378 554.927>
LayerCount: 2
Back
Fore
SplineSet
124 63 m 25
 324 63 l 2
 356 63 375 83 375 115 c 2
 375 261 l 2
 375 293 356 313 324 313 c 2
 124 313 l 25
 124 63 l 25
125 375 m 25
 324 375 l 2
 356 375 375 395 375 427 c 2
 375 512 l 2
 375 544 356 563 324 563 c 2
 125 563 l 25
 125 375 l 25
63 1 m 25
 63 625 l 25
 360 625 l 2
 393 625 438 580 438 547 c 2
 438 408 l 2
 438 362 394 349 394 344 c 0
 394 339 438 326 438 281 c 2
 438 79 l 2
 438 47 393 1 360 1 c 2
 63 1 l 25
EndSplineSet
Validated: 1
EndChar

StartChar: LATIN
Encoding: 67 67 35
Width: 500
VWidth: 0
Flags: W
HStem: 1 62<132.425 438> 563 62<133.073 438>
VStem: 63 62<70.0904 554.927>
LayerCount: 2
Back
Fore
SplineSet
63 78 m 0
 63 259 63 366 63 547 c 0
 63 580 108 625 141 625 c 0
 254 625 438 625 438 625 c 25
 438 563 l 25
 438 563 287 563 178 563 c 0
 145 563 125 543 125 511 c 0
 125 341 125 284 125 114 c 0
 125 82 144 63 176 63 c 0
 285 63 438 63 438 63 c 25
 438 1 l 25
 438 1 255 1 142 1 c 0
 109 1 63 45 63 78 c 0
EndSplineSet
Validated: 1
EndChar

StartChar: LATIN
Encoding: 68 68 36
Width: 500
VWidth: 0
Flags: W
HStem: 0 63<125 367.143> 563 63<125 366.314>
VStem: 62 63<63 563> 375 63<71.0557 554.944>
LayerCount: 2
Back
Fore
SplineSet
125 563 m 25
 125 63 l 25
 125 63 239 63 323 63 c 0
 355 63 375 82 375 114 c 0
 375 276 375 341 375 511 c 0
 375 543 356 563 324 563 c 0
 239 563 125 563 125 563 c 25
62 626 m 25
 62 626 246 626 360 626 c 0
 393 626 438 580 438 547 c 0
 438 366 438 260 438 79 c 0
 438 46 393 0 359 0 c 0
 246 0 62 0 62 0 c 25
 62 626 l 25
EndSplineSet
Validated: 1
EndChar

StartChar: LATIN
Encoding: 69 69 37
Width: 500
VWidth: 0
Flags: W
HStem: 1 62<133.056 438> 282 62<125 344> 563 62<133.056 438>
VStem: 62 63<71.0731 282 344 554.927>
CounterMasks: 1 e0
LayerCount: 2
Back
Fore
SplineSet
141 625 m 0
 254 625 438 625 438 625 c 25
 438 563 l 25
 438 563 276 563 177 563 c 0
 144 563 125 543 125 511 c 0
 125 439 125 344 125 344 c 25
 344 344 l 25
 344 282 l 25
 125 282 l 25
 125 282 125 187 125 115 c 0
 125 83 144 63 176 63 c 0
 285 63 438 63 438 63 c 25
 438 1 l 25
 438 1 254 1 141 1 c 0
 108 1 62 46 62 79 c 0
 62 260 62 366 62 547 c 0
 62 580 108 625 141 625 c 0
EndSplineSet
Validated: 1
EndChar

StartChar: LATIN
Encoding: 70 70 38
Width: 500
VWidth: 0
Flags: W
HStem: 0 21G<62 125> 282 62<125 344> 564 61<133.056 437>
VStem: 62 63<0 282 344 554.927>
LayerCount: 2
Back
Fore
SplineSet
141 625 m 0
 254 625 437 625 437 625 c 25
 437 564 l 25
 437 564 286 564 177 564 c 0
 144 564 125 544 125 511 c 0
 125 439 125 344 125 344 c 25
 344 344 l 25
 344 282 l 25
 125 282 l 25
 125 0 l 25
 62 0 l 25
 62 0 62 335 62 547 c 0
 62 580 108 625 141 625 c 0
EndSplineSet
Validated: 1
EndChar

StartChar: LATIN
Encoding: 71 71 39
Width: 500
VWidth: 0
Flags: W
HStem: 1 62<133.686 375> 282 62<250 375> 563 63<132.857 437>
VStem: 62 63<71.0731 554.944> 375 63<63 282>
LayerCount: 2
Back
Fore
SplineSet
141 626 m 0
 254 626 437 626 437 626 c 25
 437 563 l 25
 437 563 286 563 178 563 c 0
 145 563 125 545 125 512 c 0
 125 342 125 277 125 115 c 0
 125 83 144 63 176 63 c 0
 261 63 375 63 375 63 c 25
 375 282 l 25
 250 282 l 25
 250 344 l 25
 438 344 l 25
 438 1 l 25
 438 1 254 1 140 1 c 0
 107 1 62 46 62 79 c 0
 62 260 62 366 62 547 c 0
 62 580 107 626 141 626 c 0
EndSplineSet
Validated: 1
EndChar

StartChar: LATIN
Encoding: 72 72 40
Width: 500
VWidth: 0
Flags: W
HStem: 1 21G<62 125 375 437> 282 62<125 375> 605 20G<62 125 375 437>
VStem: 62 63<1 282 344 625> 375 62<1 282 344 625>
LayerCount: 2
Back
Fore
SplineSet
62 625 m 25
 125 625 l 25
 125 344 l 25
 375 344 l 25
 375 625 l 25
 437 625 l 25
 437 1 l 25
 375 1 l 25
 375 282 l 25
 125 282 l 25
 125 1 l 25
 62 1 l 25
 62 625 l 25
EndSplineSet
Validated: 1
EndChar

StartChar: LATIN
Encoding: 73 73 41
Width: 500
VWidth: 0
Flags: W
HStem: 1 62<94 219 281 406> 563 63<94 219 281 406>
VStem: 219 62<63 563>
LayerCount: 2
Back
Fore
SplineSet
94 626 m 25
 406 626 l 25
 406 563 l 25
 281 563 l 25
 281 63 l 25
 406 63 l 25
 406 1 l 25
 94 1 l 25
 94 63 l 25
 219 63 l 25
 219 563 l 25
 94 563 l 25
 94 626 l 25
EndSplineSet
Validated: 1
EndChar

StartChar: LATIN
Encoding: 74 74 42
Width: 500
VWidth: 0
Flags: W
HStem: 0 63<31 210.927> 563 62<94 219 281 407>
VStem: 219 62<71.0557 563>
LayerCount: 2
Back
Fore
SplineSet
94 625 m 25
 407 625 l 25
 407 563 l 25
 281 563 l 25
 281 563 281 266 281 79 c 0
 281 46 236 0 203 0 c 0
 139 0 31 0 31 0 c 25
 31 63 l 25
 31 63 108 63 168 63 c 0
 200 63 219 82 219 114 c 0
 219 297 219 563 219 563 c 25
 94 563 l 25
 94 625 l 25
EndSplineSet
Validated: 1
EndChar

StartChar: LATIN
Encoding: 75 75 43
Width: 500
VWidth: 0
Flags: W
HStem: 1 21G<62 125 375 437> 282 62<125 297> 605 20G<62 125 375 438>
VStem: 62 63<1 282 344 625> 375 62<1 203 423 625>
LayerCount: 2
Back
Fore
SplineSet
62 625 m 25
 125 625 l 25
 125 344 l 25
 297 344 l 25
 375 423 l 25
 375 625 l 25
 438 625 l 25
 438 407 l 25
 344 313 l 25
 437 219 l 25
 437 1 l 25
 375 1 l 25
 375 203 l 25
 297 282 l 25
 125 282 l 25
 125 1 l 25
 62 1 l 25
 62 625 l 25
EndSplineSet
Validated: 1
EndChar

StartChar: LATIN
Encoding: 76 76 44
Width: 500
VWidth: 0
Flags: W
HStem: 1 62<133.056 437> 605 20G<62 125>
VStem: 62 63<71.0731 625>
LayerCount: 2
Back
Fore
SplineSet
62 625 m 25
 125 625 l 25
 125 625 125 321 125 115 c 0
 125 83 144 63 176 63 c 0
 285 63 437 63 437 63 c 25
 437 1 l 25
 437 1 254 1 141 1 c 0
 108 1 62 46 62 79 c 0
 62 290 62 625 62 625 c 25
EndSplineSet
Validated: 1
EndChar

StartChar: LATIN
Encoding: 77 77 45
Width: 500
VWidth: 0
Flags: W
HStem: 1 21G<62 125 375 438> 606 20G<62 141.26 357.877 438>
VStem: 62 63<1 536> 375 63<1 537>
LayerCount: 2
Back
Fore
SplineSet
62 626 m 25
 124 626 l 25
 250 480 l 25
 375 626 l 25
 438 626 l 25
 438 1 l 25
 375 1 l 25
 375 537 l 25
 265 407 l 25
 235 407 l 25
 125 536 l 25
 125 1 l 25
 62 1 l 25
 62 626 l 25
EndSplineSet
Validated: 1
EndChar

StartChar: LATIN
Encoding: 78 78 46
Width: 500
VWidth: 0
Flags: W
HStem: 1 21G<62 125 364.293 437> 606 20G<62 134.98 375 437>
VStem: 62 63<1 468> 375 62<125 626>
LayerCount: 2
Back
Fore
SplineSet
62 626 m 25
 125 626 l 25
 375 125 l 25
 375 626 l 25
 437 626 l 25
 437 1 l 25
 375 1 l 25
 125 468 l 25
 125 1 l 25
 62 1 l 25
 62 626 l 25
EndSplineSet
Validated: 1
EndChar

StartChar: LATIN
Encoding: 79 79 47
Width: 500
VWidth: 0
Flags: W
HStem: 1 62<133.073 366.944> 563 62<133.073 367.917>
VStem: 63 62<71.0731 554.927> 375 63<71.0731 554.927>
LayerCount: 2
Back
Fore
SplineSet
176 563 m 0
 144 563 125 544 125 512 c 0
 125 342 125 284 125 114 c 0
 125 82 145 63 177 63 c 0
 249 63 252 63 324 63 c 0
 356 63 375 82 375 114 c 0
 375 284 375 342 375 512 c 0
 375 544 356 563 324 563 c 0
 251 563 249 563 176 563 c 0
141 625 m 0
 224 625 277 625 360 625 c 0
 393 625 438 580 438 547 c 0
 438 366 438 260 438 79 c 0
 438 46 392 1 359 1 c 0
 277 1 223 1 141 1 c 0
 108 1 63 46 63 79 c 0
 63 260 63 366 63 547 c 0
 63 580 108 625 141 625 c 0
EndSplineSet
Validated: 1
EndChar

StartChar: LATIN
Encoding: 80 80 48
Width: 500
VWidth: 0
Flags: W
HStem: 1 21G<62 125> 282 62<125 366.927> 563 63<125 366.927>
VStem: 62 63<1 282 344 563> 375 62<352.073 555.143>
LayerCount: 2
Back
Fore
SplineSet
125 563 m 25
 125 344 l 25
 125 344 239 344 324 344 c 0
 356 344 375 364 375 396 c 0
 375 456 375 452 375 512 c 0
 375 544 356 563 324 563 c 0
 239 563 125 563 125 563 c 25
62 626 m 25
 62 626 246 626 359 626 c 0
 392 626 437 581 437 547 c 0
 437 477 437 430 437 360 c 0
 437 327 392 282 359 282 c 0
 270 282 125 282 125 282 c 25
 125 1 l 25
 62 1 l 25
 62 626 l 25
EndSplineSet
Validated: 1
EndChar

StartChar: LATIN
Encoding: 81 81 49
Width: 500
VWidth: 0
Flags: W
HStem: 1 62<133.073 269 359 366.944> 563 62<133.073 367.917>
VStem: 63 62<71.0731 554.927> 375 63<69.4916 554.927>
LayerCount: 2
Back
Fore
SplineSet
176 563 m 0
 144 563 125 544 125 512 c 0
 125 342 125 284 125 114 c 0
 125 82 145 63 177 63 c 0
 269 63 l 1
 218 188 l 1
 281 188 l 1
 330 63 l 0
 356 63 375 82 375 114 c 0
 375 284 375 342 375 512 c 0
 375 544 356 563 324 563 c 0
 251 563 249 563 176 563 c 0
407 -124 m 1
 344 -124 l 1
 294 1 l 1
 141 1 l 0
 108 1 63 46 63 79 c 0
 63 260 63 366 63 547 c 0
 63 580 108 625 141 625 c 0
 224 625 277 625 360 625 c 0
 393 625 438 580 438 547 c 0
 438 366 438 260 438 79 c 0
 438 46 392 1 359 1 c 0
 407 -124 l 1
EndSplineSet
Validated: 1
EndChar

StartChar: LATIN
Encoding: 82 82 50
Width: 500
VWidth: 0
Flags: W
HStem: 1 21G<62 125 376 438> 282 62<125 309.742> 563 63<125 367.927>
VStem: 62 63<1 282 344 563> 376 62<352.753 555.143>
LayerCount: 2
Back
Fore
SplineSet
378 251 m 0
 403 155 438 1 438 1 c 1
 376 1 l 1
 376 1 336 166 316 245 c 0
 307 280 279 282 245 282 c 0
 240 282 234 282 229 282 c 2
 125 282 l 1
 125 1 l 1
 62 1 l 1
 62 626 l 1
 62 626 247 626 360 626 c 0
 393 626 438 581 438 547 c 0
 438 477 438 415 438 370 c 1
 438 312 376 307 376 265 c 0
 376 261 377 256 378 251 c 0
125 563 m 1
 125 344 l 1
 125 344 240 344 325 344 c 0
 357 344 376 364 376 396 c 0
 376 456 376 452 376 512 c 0
 376 544 357 563 325 563 c 0
 240 563 125 563 125 563 c 1
EndSplineSet
Validated: 2097153
EndChar

StartChar: LATIN
Encoding: 83 83 51
Width: 500
VWidth: 0
Flags: W
HStem: 1 62<63 366.91> 282 62<132.857 366.91> 563 63<132.083 437>
VStem: 62 63<352.073 555.143> 375 62<71.0731 273.927>
LayerCount: 2
Back
Fore
SplineSet
140 626 m 0
 253 626 437 626 437 626 c 25
 437 563 l 25
 437 563 285 563 176 563 c 0
 144 563 125 544 125 512 c 0
 125 452 125 456 125 396 c 0
 125 364 144 344 176 344 c 0
 254 344 283 344 359 344 c 0
 392 344 436 299 437 266 c 0
 438 231 438 202 438 172 c 0
 438 143 438 114 437 79 c 0
 436 46 392 1 359 1 c 0
 246 1 63 1 63 1 c 25
 63 63 l 25
 63 63 214 63 323 63 c 0
 356 63 375 83 375 115 c 0
 375 175 375 170 375 230 c 0
 375 262 355 282 323 282 c 0
 245 282 217 282 141 282 c 0
 107 282 62 327 62 360 c 0
 62 430 62 477 62 547 c 0
 62 581 107 626 140 626 c 0
EndSplineSet
Validated: 1
EndChar

StartChar: LATIN
Encoding: 84 84 52
Width: 500
VWidth: 0
Flags: W
HStem: 1 21G<219 281> 563 63<31 219 281 469>
VStem: 219 62<1 563>
LayerCount: 2
Back
Fore
SplineSet
31 626 m 25
 469 626 l 25
 469 563 l 25
 281 563 l 25
 281 1 l 25
 219 1 l 25
 219 563 l 25
 31 563 l 25
 31 626 l 25
EndSplineSet
Validated: 1
EndChar

StartChar: LATIN
Encoding: 85 85 53
Width: 500
VWidth: 0
Flags: W
HStem: 1 62<133.073 375> 606 20G<63 125 375 438>
VStem: 63 62<71.0731 626> 375 63<63 626>
LayerCount: 2
Back
Fore
SplineSet
63 626 m 25
 125 626 l 25
 125 626 125 321 125 114 c 0
 125 82 144 63 176 63 c 0
 261 63 375 63 375 63 c 25
 375 626 l 25
 438 626 l 25
 438 1 l 25
 438 1 254 1 141 1 c 0
 108 1 63 46 63 79 c 0
 63 291 63 626 63 626 c 25
EndSplineSet
Validated: 1
EndChar

StartChar: LATIN
Encoding: 86 86 54
Width: 500
VWidth: 0
Flags: W
HStem: 605 20G<62 125 375 437>
VStem: 62 63<168.331 625> 375 62<167.375 625>
LayerCount: 2
Back
Fore
SplineSet
62 625 m 25
 125 625 l 25
 125 625 125 378 125 208 c 0
 125 187 154 159 172 141 c 24
 202 111 250 63 250 63 c 1
 250 63 297 112 328 141 c 0
 347 159 375 187 375 208 c 0
 375 378 375 625 375 625 c 25
 437 625 l 25
 437 625 437 358 437 188 c 0
 437 163 405 125 390 110 c 0
 347 67 323 43 281 1 c 0
 278 -2 264 -4 250 -4 c 0
 236 -4 222 -2 219 1 c 0
 178 42 152 68 110 110 c 0
 95 125 62 162 62 188 c 0
 62 358 62 625 62 625 c 25
EndSplineSet
Validated: 1
EndChar

StartChar: LATIN
Encoding: 87 87 55
Width: 500
VWidth: 0
Flags: W
HStem: 1 21G<62 141.26 357.877 438> 606 20G<62 125 375 438>
VStem: 62 63<91 626> 375 63<90 626>
LayerCount: 2
Back
Fore
SplineSet
62 1 m 25
 62 626 l 25
 125 626 l 25
 125 91 l 25
 235 220 l 25
 265 220 l 25
 375 90 l 25
 375 626 l 25
 438 626 l 25
 438 1 l 25
 375 1 l 25
 250 147 l 25
 124 1 l 25
 62 1 l 25
EndSplineSet
Validated: 1
EndChar

StartChar: LATIN
Encoding: 88 88 56
Width: 500
VWidth: 0
Flags: W
HStem: 1 21G<62 125 375 437> 282 62<198 302> 605 20G<62 125 375 437>
VStem: 62 63<1 209 417 625> 375 62<1 209 417 626>
LayerCount: 2
Back
Fore
SplineSet
62 625 m 25
 125 625 l 25
 125 417 l 25
 198 344 l 25
 302 344 l 25
 375 417 l 25
 375 626 l 25
 437 626 l 25
 437 391 l 25
 359 313 l 25
 437 235 l 25
 437 1 l 25
 375 1 l 25
 375 209 l 25
 302 282 l 25
 197 282 l 25
 125 209 l 25
 125 1 l 25
 62 1 l 25
 62 235 l 25
 141 313 l 25
 62 391 l 25
 62 625 l 25
EndSplineSet
Validated: 1
EndChar

StartChar: LATIN
Encoding: 89 89 57
Width: 500
VWidth: 0
Flags: W
HStem: 1 62<62 366.944> 282 62<133.056 375> 606 20G<62 125 375 438>
VStem: 62 63<352.073 626> 375 63<71.0731 282 344 626>
LayerCount: 2
Back
Fore
SplineSet
62 626 m 25
 125 626 l 25
 125 626 125 493 125 396 c 0
 125 364 144 344 176 344 c 0
 261 344 375 344 375 344 c 25
 375 626 l 25
 438 626 l 25
 438 626 438 291 438 79 c 0
 438 46 392 1 359 1 c 0
 246 1 62 1 62 1 c 25
 62 63 l 25
 62 63 215 63 324 63 c 0
 356 63 375 82 375 114 c 0
 375 187 375 282 375 282 c 25
 375 282 230 282 141 282 c 0
 108 282 62 327 62 360 c 0
 62 461 62 626 62 626 c 25
EndSplineSet
Validated: 1
EndChar

StartChar: LATIN
Encoding: 90 90 58
Width: 500
VWidth: 0
Flags: W
HStem: 1 62<125 437> 563 63<62 375>
VStem: 62 63<63 126> 375 62<469 563>
LayerCount: 2
Back
Fore
SplineSet
62 626 m 25
 437 626 l 25
 437 438 l 25
 125 126 l 25
 125 63 l 25
 437 63 l 25
 437 1 l 25
 62 1 l 25
 62 157 l 25
 375 469 l 25
 375 563 l 25
 62 563 l 25
 62 626 l 25
EndSplineSet
Validated: 1
EndChar

StartChar: LEFT
Encoding: 91 91 59
Width: 500
VWidth: 0
Flags: W
HStem: -137 62<187 437> 675 63<187 437>
VStem: 125 62<-75 675>
LayerCount: 2
Back
Fore
SplineSet
125 738 m 25
 437 738 l 25
 437 675 l 25
 187 675 l 25
 187 -75 l 25
 437 -75 l 25
 437 -137 l 25
 125 -137 l 25
 125 738 l 25
EndSplineSet
Validated: 1
EndChar

StartChar: REVERSE
Encoding: 92 92 60
Width: 500
VWidth: 0
Flags: W
LayerCount: 2
Back
Fore
SplineSet
31 708 m 1
 94 708 l 1
 469 -42 l 1
 469 -84 l 1
 416 -84 l 1
 31 666 l 1
 31 708 l 1
EndSplineSet
Validated: 1
EndChar

StartChar: RIGHT
Encoding: 93 93 61
Width: 500
VWidth: 0
Flags: W
HStem: -137 62<65 315> 675 63<65 315>
VStem: 315 62<-75 675>
LayerCount: 2
Back
Fore
SplineSet
377 738 m 25
 377 -137 l 25
 65 -137 l 25
 65 -75 l 25
 315 -75 l 25
 315 675 l 25
 65 675 l 25
 65 738 l 25
 377 738 l 25
EndSplineSet
Validated: 1
EndChar

StartChar: CIRCUMFLEX
Encoding: 94 94 62
Width: 500
VWidth: 0
Flags: W
HStem: 591 84<234 266>
VStem: 91 318
LayerCount: 2
Back
Fore
SplineSet
91 495 m 25
 91 547 l 25
 219 675 l 25
 281 675 l 25
 409 547 l 25
 409 495 l 25
 362 495 l 25
 266 591 l 25
 234 591 l 25
 137 495 l 25
 91 495 l 25
EndSplineSet
Validated: 1
EndChar

StartChar: LOW
Encoding: 95 95 63
Width: 500
VWidth: 0
Flags: W
HStem: -137 62<31 469>
LayerCount: 2
Back
Fore
SplineSet
31 -75 m 1
 469 -75 l 1
 469 -137 l 1
 31 -137 l 1
 31 -75 l 1
EndSplineSet
Validated: 1
EndChar

StartChar: GRAVE
Encoding: 96 96 64
Width: 500
VWidth: 0
Flags: W
HStem: 488 157
VStem: 176 168
LayerCount: 2
Back
Fore
SplineSet
176 645 m 25
 223 645 l 25
 344 534 l 25
 344 488 l 25
 291 488 l 25
 176 593 l 25
 176 645 l 25
EndSplineSet
Validated: 1
EndChar

StartChar: LATIN
Encoding: 97 97 65
Width: 500
VWidth: 0
Flags: W
HStem: 0 62<132.073 376> 218 62<132.073 376> 375 62<93 367.927>
VStem: 62 62<70.0731 210.126> 376 62<62 218 280 366.927>
LayerCount: 2
Back
Fore
SplineSet
175 218 m 0
 143 218 124 199 124 167 c 0
 124 131 124 149 124 113 c 0
 124 81 143 62 175 62 c 0
 260 62 376 62 376 62 c 25
 376 218 l 25
 376 218 260 218 175 218 c 0
93 437 m 25
 93 437 259 437 360 437 c 0
 393 437 438 392 438 359 c 0
 438 221 438 0 438 0 c 25
 438 0 253 0 140 0 c 0
 107 0 62 45 62 78 c 0
 62 123 62 157 62 202 c 0
 62 236 107 280 140 280 c 0
 228 280 376 280 376 280 c 25
 376 280 376 300 376 323 c 0
 376 356 357 375 325 375 c 0
 228 375 93 375 93 375 c 25
 93 437 l 25
EndSplineSet
Validated: 1
EndChar

StartChar: LATIN
Encoding: 98 98 66
Width: 500
VWidth: 0
Flags: W
HStem: 0 62<124 367.927> 375 62<124 367.927> 605 20G<62 124>
VStem: 62 62<62 375 437 625> 376 62<70.0731 366.927>
LayerCount: 2
Back
Fore
SplineSet
124 375 m 25
 124 62 l 25
 124 62 240 62 325 62 c 0
 357 62 376 82 376 114 c 0
 376 211 376 226 376 323 c 0
 376 355 357 375 325 375 c 0
 240 375 124 375 124 375 c 25
62 625 m 25
 124 625 l 25
 124 437 l 25
 124 437 271 437 360 437 c 0
 393 437 438 392 438 359 c 0
 438 252 438 185 438 78 c 0
 438 45 393 0 360 0 c 0
 247 0 62 0 62 0 c 25
 62 625 l 25
EndSplineSet
Validated: 1
EndChar

StartChar: LATIN
Encoding: 99 99 67
Width: 500
VWidth: 0
Flags: W
HStem: 0 62<133.056 438> 375 62<132.083 438>
VStem: 62 63<70.0731 367.91>
LayerCount: 2
Back
Fore
SplineSet
140 437 m 0
 253 437 438 437 438 437 c 25
 438 375 l 25
 438 375 285 375 176 375 c 0
 144 375 125 356 125 324 c 0
 125 227 125 210 125 113 c 0
 125 81 144 62 176 62 c 0
 285 62 438 62 438 62 c 25
 438 0 l 25
 438 0 254 0 141 0 c 0
 108 0 62 45 62 78 c 0
 62 185 62 253 62 360 c 0
 62 393 107 437 140 437 c 0
EndSplineSet
Validated: 1
EndChar

StartChar: LATIN
Encoding: 100 100 68
Width: 500
VWidth: 0
Flags: W
HStem: 0 62<132.073 375> 375 62<132.073 375> 605 20G<375 438>
VStem: 62 62<70.0731 366.927> 375 63<62 375 437 625>
LayerCount: 2
Back
Fore
SplineSet
375 375 m 25
 375 375 260 375 175 375 c 0
 143 375 124 355 124 323 c 0
 124 226 124 211 124 114 c 0
 124 82 143 62 175 62 c 0
 260 62 375 62 375 62 c 25
 375 375 l 25
438 625 m 25
 438 0 l 25
 438 0 253 0 140 0 c 0
 107 0 62 45 62 78 c 0
 62 185 62 252 62 359 c 0
 62 392 107 437 140 437 c 0
 229 437 375 437 375 437 c 25
 375 625 l 25
 438 625 l 25
EndSplineSet
Validated: 1
EndChar

StartChar: LATIN
Encoding: 101 101 69
Width: 500
VWidth: 0
Flags: W
HStem: 0 62<132.073 438> 168 62<124 376> 375 62<132.697 376>
VStem: 62 62<70.0731 168 230 366.927> 376 62<230 375>
LayerCount: 2
Back
Fore
SplineSet
175 375 m 0
 143 375 124 355 124 323 c 0
 124 287 124 230 124 230 c 25
 376 230 l 25
 376 375 l 25
 376 375 260 375 175 375 c 0
139 437 m 0
 252 437 438 437 438 437 c 25
 438 168 l 25
 124 168 l 25
 124 168 124 149 124 113 c 0
 124 81 143 62 175 62 c 0
 284 62 438 62 438 62 c 25
 438 0 l 25
 438 0 253 0 140 0 c 0
 107 0 62 45 62 78 c 0
 62 185 62 252 62 359 c 0
 62 392 106 437 139 437 c 0
EndSplineSet
Validated: 1
EndChar

StartChar: LATIN
Encoding: 102 102 70
Width: 500
VWidth: 0
Flags: W
HStem: 0 21G<156 218> 375 62<94 156 218 344> 563 62<225.09 406>
VStem: 156 62<0 375 437 554.927>
LayerCount: 2
Back
Fore
SplineSet
233 625 m 0
 297 625 406 625 406 625 c 25
 406 563 l 25
 406 563 329 563 269 563 c 0
 237 563 217 544 217 512 c 0
 217 452 217 437 217 437 c 25
 344 437 l 25
 344 375 l 25
 218 375 l 25
 218 0 l 25
 156 0 l 25
 156 375 l 25
 94 375 l 25
 94 437 l 25
 156 437 l 25
 156 437 156 483 156 547 c 0
 156 580 200 625 233 625 c 0
EndSplineSet
Validated: 1
EndChar

StartChar: LATIN
Encoding: 103 103 71
Width: 500
VWidth: 0
Flags: W
HStem: -200 62<62 367.927> 0 62<131.874 368.301> 375 62<132.697 376>
VStem: 62 62<70.0731 366.927> 376 62<-130.917 -7.12951 69.6992 375>
LayerCount: 2
Back
Fore
SplineSet
175 375 m 0
 143 375 124 355 124 323 c 0
 124 226 124 211 124 114 c 0
 124 82 143 62 175 62 c 0
 247 62 252 62 324 62 c 0
 356 62 376 81 376 113 c 0
 376 222 376 375 376 375 c 25
 376 375 260 375 175 375 c 0
139 437 m 0
 252 437 438 437 438 437 c 25
 438 437 438 226 438 94 c 0
 438 60 396 30 396 30 c 25
 396 30 438 3 438 -31 c 0
 438 -59 438 -95 438 -123 c 0
 438 -166 393 -200 360 -200 c 0
 247 -200 62 -200 62 -200 c 25
 62 -138 l 25
 62 -138 216 -138 325 -138 c 0
 357 -138 376 -119 376 -87 c 0
 376 -64 376 -75 376 -52 c 0
 376 -19 357 0 325 0 c 0
 247 0 216 0 140 0 c 0
 106 0 62 45 62 78 c 0
 62 185 62 252 62 359 c 0
 62 392 106 437 139 437 c 0
EndSplineSet
Validated: 1
EndChar

StartChar: LATIN
Encoding: 104 104 72
Width: 500
VWidth: 0
Flags: W
HStem: 0 21G<62 124 376 438> 375 62<124 367.927> 605 20G<62 124>
VStem: 62 62<0 375 437 625> 376 62<0 366.927>
LayerCount: 2
Back
Fore
SplineSet
62 625 m 25
 124 625 l 25
 124 437 l 25
 124 437 271 437 360 437 c 0
 393 437 438 392 438 359 c 0
 438 221 438 0 438 0 c 25
 376 0 l 25
 376 0 376 190 376 323 c 0
 376 355 357 375 325 375 c 0
 240 375 124 375 124 375 c 25
 124 0 l 25
 62 0 l 25
 62 625 l 25
EndSplineSet
Validated: 1
EndChar

StartChar: LATIN
Encoding: 105 105 73
Width: 500
VWidth: 0
Flags: W
HStem: 0 21G<219 281> 417 20G<219 281> 545 79<219 281>
VStem: 219 62<0 437 545 624>
LayerCount: 2
Back
Fore
SplineSet
219 437 m 25
 281 437 l 25
 281 0 l 25
 219 0 l 25
 219 437 l 25
219 624 m 25
 281 624 l 25
 281 545 l 25
 219 545 l 25
 219 624 l 25
EndSplineSet
Validated: 1
EndChar

StartChar: LATIN
Encoding: 106 106 74
Width: 500
VWidth: 0
Flags: W
HStem: -200 62<94 210.927> 417 20G<219 281> 546 79<219 281>
VStem: 219 62<-130.91 437 546 625>
LayerCount: 2
Back
Fore
SplineSet
219 437 m 25
 281 437 l 25
 281 437 281 89 281 -123 c 0
 281 -156 236 -200 203 -200 c 0
 164 -200 94 -200 94 -200 c 25
 94 -138 l 25
 94 -138 132 -138 168 -138 c 0
 200 -138 219 -119 219 -87 c 0
 219 120 219 437 219 437 c 25
219 625 m 25
 281 625 l 25
 281 546 l 25
 219 546 l 25
 219 625 l 25
EndSplineSet
Validated: 1
EndChar

StartChar: LATIN
Encoding: 107 107 75
Width: 500
VWidth: 0
Flags: W
HStem: 0 21G<62 124 340.37 406> 219 62<124 155> 417 20G<346.795 406> 605 20G<62 124>
VStem: 62 62<0 219 281 625>
LayerCount: 2
Back
Fore
SplineSet
155 219 m 25
 124 219 l 25
 124 0 l 25
 62 0 l 25
 62 625 l 25
 124 625 l 25
 124 281 l 25
 155 281 l 25
 375 437 l 25
 406 437 l 25
 406 390 l 25
 218 255 l 25
 218 239 l 25
 406 31 l 25
 406 0 l 25
 359 0 l 25
 155 219 l 25
EndSplineSet
Validated: 1
EndChar

StartChar: LATIN
Encoding: 108 108 76
Width: 500
VWidth: 0
Flags: W
HStem: 0 62<226.697 405> 605 20G<156 218>
VStem: 156 62<70.0731 625>
LayerCount: 2
Back
Fore
SplineSet
156 625 m 25
 218 625 l 25
 218 625 218 321 218 114 c 0
 218 82 237 62 269 62 c 0
 329 62 405 62 405 62 c 25
 405 0 l 25
 405 0 297 0 233 0 c 0
 200 0 156 45 156 78 c 0
 156 290 156 625 156 625 c 25
EndSplineSet
Validated: 1
EndChar

StartChar: LATIN
Encoding: 109 109 77
Width: 500
VWidth: 0
Flags: W
HStem: 0 21G<62 125 375 437> 375 62<125 219 281 366.728>
VStem: 62 63<0 375> 219 62<125 375> 375 62<0 366.927>
LayerCount: 2
Back
Fore
SplineSet
62 0 m 25
 62 437 l 25
 219 437 l 25
 219 376 l 17
 281 376 l 1
 281 437 l 9
 281 437 332 437 359 437 c 0
 391 437 437 392 437 359 c 0
 437 221 437 0 437 0 c 25
 375 0 l 25
 375 0 375 190 375 323 c 0
 375 355 356 375 324 375 c 0
 301 375 281 375 281 375 c 25
 281 125 l 25
 219 125 l 25
 219 375 l 25
 125 375 l 25
 125 0 l 25
 62 0 l 25
EndSplineSet
Validated: 1
EndChar

StartChar: LATIN
Encoding: 110 110 78
Width: 500
VWidth: 0
Flags: W
HStem: 0 21G<62 124 376 438> 375 62<124 367.927>
VStem: 62 62<0 375> 376 62<0 367.126>
LayerCount: 2
Back
Fore
SplineSet
62 0 m 25
 62 437 l 25
 62 437 247 437 360 437 c 0
 393 437 438 393 438 359 c 0
 438 222 438 0 438 0 c 25
 376 0 l 25
 376 0 376 191 376 324 c 0
 376 356 357 375 325 375 c 0
 240 375 124 375 124 375 c 25
 124 0 l 25
 62 0 l 25
EndSplineSet
Validated: 1
EndChar

StartChar: LATIN
Encoding: 111 111 79
Width: 500
VWidth: 0
Flags: W
HStem: 1 62<133.073 366.944> 375 62<133.073 367.917>
VStem: 63 62<71.0731 366.927> 375 63<71.0731 366.927>
LayerCount: 2
Back
Fore
SplineSet
176 375 m 0
 144 375 125 356 125 324 c 0
 125 154 125 284 125 114 c 0
 125 82 145 63 177 63 c 0
 249 63 252 63 324 63 c 0
 356 63 375 82 375 114 c 0
 375 284 375 154 375 324 c 0
 375 356 356 375 324 375 c 0
 251 375 249 375 176 375 c 0
141 437 m 0
 224 437 277 437 360 437 c 0
 393 437 438 392 438 359 c 0
 438 178 438 260 438 79 c 0
 438 46 392 1 359 1 c 0
 277 1 223 1 141 1 c 0
 108 1 63 46 63 79 c 0
 63 260 63 178 63 359 c 0
 63 392 108 437 141 437 c 0
EndSplineSet
Validated: 1
EndChar

StartChar: LATIN
Encoding: 112 112 80
Width: 500
VWidth: 0
Flags: W
HStem: -200 21G<62 124> 0 62<124 367.927> 375 62<124 367.927>
VStem: 62 62<-200 0 62 375> 376 62<70.0731 366.927>
LayerCount: 2
Back
Fore
SplineSet
124 62 m 25
 124 62 240 62 325 62 c 0
 357 62 376 82 376 114 c 0
 376 211 376 226 376 323 c 0
 376 355 357 375 325 375 c 0
 240 375 124 375 124 375 c 25
 124 62 l 25
62 -200 m 25
 62 437 l 25
 62 437 247 437 360 437 c 0
 393 437 438 392 438 359 c 0
 438 252 438 185 438 78 c 0
 438 45 393 0 360 0 c 0
 271 0 124 0 124 0 c 25
 124 -200 l 25
 62 -200 l 25
EndSplineSet
Validated: 1
EndChar

StartChar: LATIN
Encoding: 113 113 81
Width: 500
VWidth: 0
Flags: W
HStem: -200 21G<376 438> 0 62<132.073 376> 375 62<132.073 376>
VStem: 62 62<70.0731 366.927> 376 62<-200 0 62 375>
LayerCount: 2
Back
Fore
SplineSet
376 62 m 25
 376 375 l 25
 376 375 260 375 175 375 c 0
 143 375 124 355 124 323 c 0
 124 226 124 211 124 114 c 0
 124 82 143 62 175 62 c 0
 260 62 376 62 376 62 c 25
438 -200 m 25
 376 -200 l 25
 376 0 l 25
 376 0 229 0 140 0 c 0
 107 0 62 45 62 78 c 0
 62 185 62 252 62 359 c 0
 62 392 107 437 140 437 c 0
 253 437 438 437 438 437 c 25
 438 -200 l 25
EndSplineSet
Validated: 1
EndChar

StartChar: LATIN
Encoding: 114 114 82
Width: 500
VWidth: 0
Flags: W
HStem: 0 21G<62 124> 313 124<376 438> 374 63<131.874 376>
VStem: 62 62<0 366.143> 376 62<313 374>
LayerCount: 2
Back
Fore
SplineSet
62 0 m 25xb8
 62 0 62 221 62 358 c 0
 62 392 106 437 140 437 c 0xb8
 253 437 438 437 438 437 c 25
 438 313 l 25
 376 313 l 25xd8
 376 374 l 25
 376 374 260 374 175 374 c 0
 143 374 124 354 124 322 c 0
 124 189 124 0 124 0 c 25
 62 0 l 25xb8
EndSplineSet
Validated: 1
EndChar

StartChar: LATIN
Encoding: 115 115 83
Width: 500
VWidth: 0
Flags: W
HStem: 1 62<63 366.91> 187 62<132.857 366.91> 374 63<132.083 437>
VStem: 62 63<257.073 366.143> 375 62<71.0731 170.641 173.337 178.927>
LayerCount: 2
Back
Fore
SplineSet
140 437 m 0
 253 437 437 437 437 437 c 25
 437 374 l 25
 437 374 285 374 176 374 c 0
 144 374 125 355 125 323 c 0
 125 263 125 361 125 301 c 0
 125 269 144 249 176 249 c 0
 254 249 283 249 359 249 c 0
 392 249 436 204 437 171 c 0
 438 136 438 202 438 172 c 0
 438 143 438 114 437 79 c 0
 436 46 392 1 359 1 c 0
 246 1 63 1 63 1 c 25
 63 63 l 25
 63 63 214 63 323 63 c 0
 356 63 375 83 375 115 c 0
 375 175 375 75 375 135 c 0
 375 167 355 187 323 187 c 0
 245 187 217 187 141 187 c 0
 107 187 62 232 62 265 c 0
 62 335 62 288 62 358 c 0
 62 392 107 437 140 437 c 0
EndSplineSet
Validated: 1
EndChar

StartChar: LATIN
Encoding: 116 116 84
Width: 500
VWidth: 0
Flags: W
HStem: 0 62<226.073 406> 375 62<94 156 218 342> 605 20G<156 218>
VStem: 156 62<70.0731 375 437 625>
LayerCount: 2
Back
Fore
SplineSet
94 376 m 25
 94 437 l 25
 156 437 l 25
 156 625 l 25
 218 625 l 25
 218 437 l 25
 342 437 l 25
 342 375 l 25
 218 375 l 25
 218 375 218 222 218 113 c 0
 218 81 237 62 269 62 c 0
 329 62 406 62 406 62 c 25
 406 0 l 25
 406 0 298 0 234 0 c 0
 201 0 156 45 156 78 c 0
 156 191 156 376 156 376 c 25
 94 376 l 25
EndSplineSet
Validated: 1
EndChar

StartChar: LATIN
Encoding: 117 117 85
Width: 500
VWidth: 0
Flags: W
HStem: 0 62<132.073 376> 417 20G<62 124 376 438>
VStem: 62 62<69.8739 437> 376 62<62 437>
LayerCount: 2
Back
Fore
SplineSet
438 437 m 25
 438 0 l 25
 438 0 253 0 140 0 c 0
 107 0 62 44 62 78 c 0
 62 215 62 437 62 437 c 25
 124 437 l 25
 124 437 124 246 124 113 c 0
 124 81 143 62 175 62 c 0
 260 62 376 62 376 62 c 25
 376 437 l 25
 438 437 l 25
EndSplineSet
Validated: 1
EndChar

StartChar: LATIN
Encoding: 118 118 86
Width: 500
VWidth: 0
Flags: W
HStem: 0 21G<218 282> 417 20G<62 124 376 438>
VStem: 62 62<166.944 437> 376 62<167.931 437>
LayerCount: 2
Back
Fore
SplineSet
62 437 m 25
 124 437 l 25
 124 437 124 304 124 208 c 0
 124 187 152 159 171 140 c 24
 202 109 251 62 251 62 c 25
 251 62 299 110 329 140 c 0
 347 158 376 188 376 207 c 0
 376 303 376 437 376 437 c 25
 438 437 l 25
 438 437 438 284 438 188 c 0
 438 158 417 135 391 109 c 0
 349 67 282 0 282 0 c 25
 218 0 l 25
 218 0 151 67 108 109 c 0
 83 134 62 157 62 187 c 0
 62 284 62 437 62 437 c 25
EndSplineSet
Validated: 1
EndChar

StartChar: LATIN
Encoding: 119 119 87
Width: 500
VWidth: 0
Flags: W
HStem: 0 62<132.272 218 280 375> 417 20G<62 124 375 438>
VStem: 62 62<70.0731 437> 218 62<62 312> 375 63<62 437>
LayerCount: 2
Back
Fore
SplineSet
438 437 m 25
 438 0 l 25
 280 0 l 25
 280 61 l 17
 218 61 l 1
 218 0 l 9
 218 0 167 0 140 0 c 0
 108 0 62 45 62 78 c 0
 62 216 62 437 62 437 c 25
 124 437 l 25
 124 437 124 247 124 114 c 0
 124 82 143 62 175 62 c 0
 198 62 218 62 218 62 c 25
 218 312 l 25
 280 312 l 25
 280 62 l 25
 375 62 l 25
 375 437 l 25
 438 437 l 25
EndSplineSet
Validated: 1
EndChar

StartChar: LATIN
Encoding: 120 120 88
Width: 500
VWidth: 0
Flags: W
HStem: 0 21G<63 125 376 438> 417 20G<62 125 376 438>
VStem: 63 62<0 113.444 390 437> 376 62<0 114.502 390 437>
LayerCount: 2
Back
Fore
SplineSet
62 437 m 25
 125 437 l 25
 125 390 l 25
 235 280 l 25
 265 280 l 25
 376 390 l 25
 376 437 l 25
 438 437 l 25
 438 375 l 25
 312 249 l 25
 312 249 361 204 392 171 c 0
 416 145 438 118 438 93 c 0
 438 58 438 0 438 0 c 25
 376 0 l 25
 376 0 376 39 376 62 c 0
 376 98 364 105 339 131 c 0
 309 162 250 219 250 219 c 25
 250 219 192 162 162 131 c 0
 137 105 125 88 125 62 c 0
 125 39 125 0 125 0 c 25
 63 0 l 25
 63 0 63 58 63 93 c 0
 63 118 85 146 110 171 c 0
 143 204 188 250 188 250 c 25
 62 375 l 25
 62 437 l 25
EndSplineSet
Validated: 1
EndChar

StartChar: LATIN
Encoding: 121 121 89
Width: 500
VWidth: 0
Flags: W
HStem: -200 63<62 366.927> 0 62<132.073 375> 417 20G<62 124 375 437>
VStem: 62 62<69.8739 437> 375 62<-129.917 0 62 437>
LayerCount: 2
Back
Fore
SplineSet
62 437 m 25
 124 437 l 25
 124 437 124 247 124 113 c 0
 124 81 144 62 176 62 c 0
 260 62 375 62 375 62 c 25
 375 437 l 25
 437 437 l 25
 437 437 437 90 437 -122 c 0
 437 -155 392 -200 359 -200 c 0
 246 -200 62 -200 62 -200 c 25
 62 -137 l 25
 62 -137 215 -137 324 -137 c 0
 356 -137 375 -118 375 -86 c 0
 375 -50 375 0 375 0 c 25
 375 0 229 0 140 0 c 0
 107 0 62 44 62 78 c 0
 62 216 62 437 62 437 c 25
EndSplineSet
Validated: 1
EndChar

StartChar: LATIN
Encoding: 122 122 90
Width: 500
VWidth: 0
Flags: W
HStem: 0 62<156 438> 375 62<62 376>
LayerCount: 2
Back
Fore
SplineSet
62 437 m 25
 437 437 l 25
 437 343 l 25
 156 62 l 25
 438 62 l 25
 438 0 l 25
 63 0 l 25
 63 62 l 25
 376 375 l 25
 62 375 l 25
 62 437 l 25
EndSplineSet
Validated: 1
EndChar

StartChar: LEFT
Encoding: 123 123 91
Width: 500
VWidth: 0
Flags: W
HStem: -125 62<256.09 438> 250 125<62 140> 687 62<256.874 438>
VStem: 187 62<-54.9269 203 422 678.927>
LayerCount: 2
Back
Fore
SplineSet
265 749 m 0
 329 749 438 749 438 749 c 25
 438 687 l 25
 438 687 360 687 300 687 c 0
 268 687 249 668 249 636 c 0
 249 533 249 390 249 390 c 25
 187 327 l 25
 187 297 l 25
 249 234 l 25
 249 234 249 91 249 -12 c 0
 249 -44 268 -63 300 -63 c 0
 360 -63 438 -63 438 -63 c 25
 438 -125 l 25
 438 -125 328 -125 264 -125 c 0
 231 -125 187 -80 187 -47 c 0
 187 48 187 203 187 203 c 25
 140 250 l 25
 62 250 l 25
 62 375 l 25
 141 375 l 25
 187 422 l 25
 187 422 187 577 187 671 c 0
 187 704 231 749 265 749 c 0
EndSplineSet
Validated: 1
EndChar

StartChar: VERTICAL
Encoding: 124 124 92
Width: 500
VWidth: 0
Flags: W
VStem: 219 62<-62 687>
LayerCount: 2
Back
Fore
SplineSet
219 687 m 1
 281 687 l 1
 281 -62 l 1
 219 -62 l 1
 219 687 l 1
EndSplineSet
Validated: 1
EndChar

StartChar: RIGHT
Encoding: 125 125 93
Width: 500
VWidth: 0
Flags: W
HStem: -125 62<62 243.91> 250 125<360 438> 687 62<62 243.126>
VStem: 251 62<-54.9269 203 422 678.927>
LayerCount: 2
Back
Fore
SplineSet
235 749 m 0
 269 749 313 704 313 671 c 0
 313 577 313 422 313 422 c 25
 359 375 l 25
 438 375 l 25
 438 250 l 25
 360 250 l 25
 313 203 l 25
 313 203 313 48 313 -47 c 0
 313 -80 269 -125 236 -125 c 0
 172 -125 62 -125 62 -125 c 25
 62 -63 l 25
 62 -63 140 -63 200 -63 c 0
 232 -63 251 -44 251 -12 c 0
 251 91 251 234 251 234 c 25
 313 297 l 25
 313 327 l 25
 251 390 l 25
 251 390 251 533 251 636 c 0
 251 668 232 687 200 687 c 0
 140 687 62 687 62 687 c 25
 62 749 l 25
 62 749 171 749 235 749 c 0
EndSplineSet
Validated: 1
EndChar

StartChar: TILDE
Encoding: 126 126 94
Width: 500
VWidth: 0
Flags: W
HStem: 531 62<277.648 367.157> 625 62<132.843 209.406>
VStem: 62 63<531 618.602> 375 63<600.887 687>
LayerCount: 2
Back
Fore
SplineSet
62 531 m 25
 62 531 62 577 62 610 c 0
 62 639 117 687 156 687 c 0
 178 687 173 687 188 687 c 0
 250 687 270 593 312 593 c 0
 327 593 313 593 324 593 c 0
 356 593 375 612 375 645 c 0
 375 668 375 687 375 687 c 25
 438 687 l 25
 438 687 438 641 438 608 c 0
 438 579 383 531 344 531 c 0
 316 531 323 531 296 531 c 0
 245 531 211 625 182 625 c 0
 172 625 177 625 166 625 c 0
 144 625 125 606 125 573 c 0
 125 550 125 531 125 531 c 25
 62 531 l 25
EndSplineSet
Validated: 1
EndChar

StartChar: CENT
Encoding: 162 162 98
Width: 500
VWidth: 0
Flags: W
HStem: 0 62<133.056 251 312 438> 375 62<132.083 251 312 438>
VStem: 62 63<70.0731 367.91> 251 61<-63 0 62 375 437 498>
LayerCount: 2
Back
Fore
SplineSet
251 498 m 1
 312 498 l 1
 312 437 l 1
 438 437 l 1
 438 375 l 1
 312 375 l 1
 312 62 l 1
 438 62 l 1
 438 0 l 1
 312 0 l 1
 312 -63 l 1
 251 -63 l 1
 251 0 l 1
 141 0 l 2
 108 0 62 45 62 78 c 0
 62 185 62 253 62 360 c 0
 62 393 107 437 140 437 c 2
 251 437 l 1
 251 498 l 1
251 62 m 1
 251 375 l 1
 176 375 l 2
 144 375 125 356 125 324 c 0
 125 227 125 210 125 113 c 0
 125 81 144 62 176 62 c 2
 251 62 l 1
EndSplineSet
Validated: 1
EndChar

StartChar: POUND
Encoding: 163 163 99
Width: 500
VWidth: 0
Flags: W
HStem: 0 62<62 94 156 438> 281 62<62 125 187 374> 562 63<195.073 335.927>
VStem: 125 62<125 281 343 554.143> 344 62<500 554.143>
LayerCount: 2
Back
Fore
SplineSet
203 625 m 0
 248 625 283 625 328 625 c 0
 361 625 406 580 406 546 c 0
 406 531 406 500 406 500 c 25
 344 500 l 25
 344 500 344 500 344 511 c 0
 344 543 324 562 292 562 c 0
 257 562 274 562 239 562 c 0
 207 562 187 543 187 511 c 0
 187 438 187 343 187 343 c 25
 374 343 l 25
 374 281 l 25
 187 281 l 25
 187 125 l 25
 156 62 l 25
 438 62 l 25
 438 0 l 25
 62 0 l 25
 62 62 l 25
 94 62 l 25
 125 125 l 25
 125 281 l 25
 62 281 l 25
 62 343 l 25
 125 343 l 25
 125 343 125 470 125 546 c 0
 125 580 170 625 203 625 c 0
EndSplineSet
Validated: 1
EndChar

StartChar: CURRENCY
Encoding: 164 164 100
Width: 500
VWidth: 0
Flags: W
VStem: 94 62<225.893 398.338> 343 63<225.917 398.338>
LayerCount: 2
Back
Fore
SplineSet
207 406 m 0
 175 406 156 387 156 355 c 2
 156 269 l 2
 156 237 176 218 208 218 c 0
 280 218 220 218 292 218 c 0
 324 218 343 237 343 269 c 2
 343 355 l 2
 343 387 324 406 292 406 c 0
 219 406 280 406 207 406 c 0
94 531 m 1
 188 531 l 1
 249 468 l 1
 251 468 l 1
 312 531 l 1
 406 531 l 1
 342 466 l 1
 372 456 406 419 406 390 c 2
 406 234 l 2
 406 206 372 169 342 159 c 1
 406 93 l 1
 313 93 l 1
 251 156 l 1
 249 156 l 1
 187 93 l 1
 94 93 l 1
 158 158 l 1
 127 168 94 206 94 234 c 2
 94 390 l 2
 94 419 128 456 158 466 c 1
 94 531 l 1
EndSplineSet
Validated: 1
EndChar

StartChar: YEN
Encoding: 165 165 101
Width: 500
VWidth: 0
Flags: W
HStem: 0 21G<219 281> 62 63<94 219 281 406> 187 63<94 219 281 406> 605 20G<62 134.96 365.04 438>
VStem: 219 62<0 62 125 187 250 282>
LayerCount: 2
Back
Fore
SplineSet
62 625 m 25
 125 625 l 25
 250 374 l 25
 375 625 l 25
 438 625 l 25
 281 282 l 25
 281 250 l 25
 406 250 l 25
 406 187 l 25
 281 187 l 25
 281 125 l 25
 406 125 l 25
 406 62 l 25
 281 62 l 25
 281 0 l 25
 219 0 l 25
 219 62 l 25
 94 62 l 25
 94 125 l 25
 219 125 l 25
 219 187 l 25
 94 187 l 25
 94 250 l 25
 219 250 l 25
 219 282 l 25
 62 625 l 25
EndSplineSet
Validated: 1
EndChar

StartChar: BROKEN
Encoding: 166 166 102
Width: 500
VWidth: 0
Flags: W
VStem: 218 64<-63 249 375 687>
LayerCount: 2
Back
Fore
SplineSet
218 249 m 1
 282 249 l 1
 282 -63 l 1
 218 -63 l 1
 218 249 l 1
218 687 m 1
 282 687 l 1
 282 375 l 1
 218 375 l 1
 218 687 l 1
EndSplineSet
Validated: 1
EndChar

StartChar: SECTION
Encoding: 167 167 103
Width: 500
VWidth: 0
Flags: W
HStem: -63 94<164.366 203> -63 62<204.017 335.927> 156 62<164.073 307.517> 406 62<192.483 335.917> 593 94<297 335.634> 625 62<164.073 295.983>
VStem: 94 62<226.073 398.91 504.391 617.126> 125 78<2.64429 31> 297 78<593 621.356> 343 63<6.87389 120.864 225.131 397.927>
LayerCount: 2
Back
Fore
SplineSet
406 108 m 0x3640
 406 74 406 85 406 15 c 0
 406 -19 361 -63 328 -63 c 0x7640
 215 -63 237 -63 187 -63 c 0
 153 -63 125 -22 125 31 c 1
 132 31 172 31 203 31 c 1xb140
 203 2 220 -1 257 -1 c 0
 267 -1 279 -1 292 -1 c 0
 324 -1 344 18 344 50 c 2
 344 72 l 2
 344 98 313 141 274 156 c 1
 172 156 l 2
 139 156 94 201 94 234 c 2
 94 390 l 2
 94 413 117 443 141 458 c 1
 124 472 94 498 94 516 c 0
 94 550 94 539 94 609 c 0
 94 643 139 687 172 687 c 0x76
 285 687 263 687 313 687 c 0
 347 687 375 646 375 593 c 1
 368 593 328 593 297 593 c 1x3a80
 297 622 280 625 243 625 c 0
 233 625 221 625 208 625 c 0
 176 625 156 606 156 574 c 2
 156 552 l 2
 156 526 187 483 226 468 c 1
 328 468 l 2
 361 468 406 423 406 390 c 2
 406 234 l 2
 406 211 383 182 358 166 c 1
 375 153 406 126 406 108 c 0x3640
207 406 m 0
 175 406 156 387 156 355 c 2
 156 269 l 2
 156 237 176 218 208 218 c 0
 280 218 220 218 292 218 c 0
 324 218 343 237 343 269 c 2
 343 355 l 2
 343 387 324 406 292 406 c 0
 219 406 280 406 207 406 c 0
EndSplineSet
Validated: 1
EndChar

StartChar: DIAERESIS
Encoding: 168 168 104
Width: 500
VWidth: 0
Flags: W
HStem: 500 93<125 187 313 375>
VStem: 125 62<500 593> 313 62<500 593>
LayerCount: 2
Back
Fore
SplineSet
313 593 m 1
 375 593 l 1
 375 500 l 1
 313 500 l 1
 313 593 l 1
125 593 m 1
 187 593 l 1
 187 500 l 1
 125 500 l 1
 125 593 l 1
EndSplineSet
Validated: 1
EndChar

StartChar: COPYRIGHT
Encoding: 169 169 105
Width: 500
VWidth: 0
Flags: W
HStem: 0 62<132.073 366.944> 125 62<227.056 344> 281 93<281 344> 313 61<226.083 281> 437 62<132.073 367.917>
VStem: 62 62<70.0731 428.927> 156 63<195.073 305.892> 281 63<281 313> 375 63<70.0731 428.927>
LayerCount: 2
Back
Fore
SplineSet
140 499 m 0xcf80
 223 499 277 499 360 499 c 0
 393 499 438 454 438 421 c 0
 438 240 438 259 438 78 c 0
 438 45 392 0 359 0 c 0
 277 0 222 0 140 0 c 0
 107 0 62 45 62 78 c 0
 62 259 62 240 62 421 c 0
 62 454 107 499 140 499 c 0xcf80
175 437 m 0
 143 437 124 418 124 386 c 0
 124 216 124 283 124 113 c 0
 124 81 144 62 176 62 c 0
 248 62 252 62 324 62 c 0
 356 62 375 81 375 113 c 0
 375 283 375 216 375 386 c 0
 375 418 356 437 324 437 c 0
 251 437 248 437 175 437 c 0
234 374 m 2xdf80
 234 374 344 374 344 374 c 1xef80
 344 328 l 1
 344 313 l 1xdf80
 344 281 l 1
 281 281 l 1xef80
 281 313 l 1
 270 313 l 2
 238 313 219 294 219 262 c 2
 219 238 l 2
 219 206 238 187 270 187 c 2
 270 187 344 187 344 187 c 1
 344 125 l 1
 235 125 l 2
 202 125 156 170 156 203 c 2
 156 298 l 2
 156 331 201 374 234 374 c 2xdf80
EndSplineSet
Validated: 1
EndChar

StartChar: FEMININE
Encoding: 170 170 106
Width: 500
VWidth: 0
Flags: W
HStem: 250 62<125 375> 375 62<188.525 313> 500 62<188.525 313> 625 62<156 311.475>
VStem: 125 62<437.303 498.787> 313 62<437 500 562 623.475>
LayerCount: 2
Back
Fore
SplineSet
156 687 m 1
 156 687 196 687 297 687 c 0
 330 687 375 642 375 609 c 0
 375 471 375 375 375 375 c 1
 375 375 316 375 203 375 c 0
 170 375 125 417 125 450 c 2
 125 484 l 2
 125 518 170 562 203 562 c 0
 291 562 313 562 313 562 c 1
 313 562 313 572 313 595 c 0
 313 623 299 625 276 625 c 0
 272 625 267 625 262 625 c 0
 165 625 156 625 156 625 c 1
 156 687 l 1
238 500 m 2
 235 500 233 500 230 500 c 0
 203 500 187 499 187 479 c 0
 187 473 187 461 187 455 c 0
 187 439 197 437 215 437 c 0
 222 437 229 437 238 437 c 2
 238 437 313 437 313 437 c 1
 313 500 l 1
 238 500 l 2
125 312 m 1
 375 312 l 1
 375 250 l 1
 125 250 l 1
 125 312 l 1
EndSplineSet
Validated: 1
EndChar

StartChar: LEFT-POINTING
Encoding: 171 171 107
Width: 500
VWidth: 0
Flags: W
HStem: 50 313
LayerCount: 2
Back
Fore
SplineSet
343 363 m 25
 437 363 l 25
 295 221 l 25
 295 191 l 25
 435 50 l 25
 342 50 l 25
 201 191 l 25
 201 221 l 25
 343 363 l 25
187 363 m 25
 281 363 l 25
 139 221 l 25
 139 191 l 25
 279 50 l 25
 186 50 l 25
 45 191 l 25
 45 221 l 25
 187 363 l 25
EndSplineSet
Validated: 513
EndChar

StartChar: NOT
Encoding: 172 172 108
Width: 500
VWidth: 0
Flags: W
HStem: 375 62<62 374>
VStem: 374 64<188 375>
LayerCount: 2
Back
Fore
SplineSet
438 375 m 1
 438 188 l 1
 374 188 l 1
 374 375 l 1
 62 375 l 1
 62 437 l 1
 374 437 l 1
 438 437 l 1
 438 375 l 1
EndSplineSet
Validated: 1
EndChar

StartChar: SOFT
Encoding: 173 173 109
Width: 500
VWidth: 0
Flags: W
HStem: 250 62<94 406>
VStem: 94 312<250 312>
LayerCount: 2
Back
Fore
SplineSet
94 312 m 1
 406 312 l 1
 406 250 l 1
 94 250 l 1
 94 312 l 1
EndSplineSet
Validated: 1
EndChar

StartChar: REGISTERED
Encoding: 174 174 110
Width: 500
VWidth: 0
Flags: W
HStem: 63 62<132.073 367.927> 281 62<218 281.242> 375 63<218 282.801> 501 62<132.073 368.91>
VStem: 62 62<133.073 492.927> 156 62<187 281 343 375> 282 62<187 279.223 342.964 375.061> 376 62<133.073 492.927>
LayerCount: 2
Back
Fore
SplineSet
140 563 m 0
 223 563 278 563 361 563 c 0
 394 563 438 518 438 485 c 0
 438 304 438 322 438 141 c 0
 438 108 393 63 360 63 c 0
 278 63 222 63 140 63 c 0
 107 63 62 108 62 141 c 0
 62 322 62 304 62 485 c 0
 62 518 107 563 140 563 c 0
175 501 m 0
 143 501 124 482 124 450 c 0
 124 280 124 346 124 176 c 0
 124 144 144 125 176 125 c 0
 248 125 253 125 325 125 c 0
 357 125 376 144 376 176 c 0
 376 346 376 280 376 450 c 0
 376 482 357 501 325 501 c 0
 252 501 248 501 175 501 c 0
218 375 m 1
 218 343 l 1
 256 343 l 2
 272 343 283 341 283 357 c 2
 283 362 l 2
 283 378 272 375 256 375 c 2
 218 375 l 1
313 289 m 1
 341 289 344 221 344 196 c 0
 344 191 344 187 344 187 c 1
 282 187 l 1
 282 187 282 213 282 252 c 0
 282 279 260 281 240 281 c 2
 218 281 l 1
 218 187 l 1
 156 187 l 1
 156 438 l 1
 156 438 250 438 306 438 c 0
 322 438 344 415 344 398 c 0
 344 363 344 356 344 334 c 0
 344 312 324 289 313 289 c 1
EndSplineSet
Validated: 1
EndChar

StartChar: MACRON
Encoding: 175 175 111
Width: 500
VWidth: 0
Flags: W
HStem: 687 62<125 375>
VStem: 125 250<687 749>
LayerCount: 2
Back
Fore
SplineSet
125 749 m 1
 375 749 l 1
 375 687 l 1
 125 687 l 1
 125 749 l 1
EndSplineSet
Validated: 1
EndChar

StartChar: DEGREE
Encoding: 176 176 112
Width: 500
VWidth: 0
Flags: W
HStem: 390 62<195.073 303.944> 579 62<195.073 304.917>
VStem: 125 62<460.073 570.927> 312 63<460.073 570.927>
LayerCount: 2
Back
Fore
SplineSet
203 641 m 0
 286 641 214 641 297 641 c 0
 330 641 375 596 375 563 c 2
 375 468 l 2
 375 435 329 390 296 390 c 0
 214 390 285 390 203 390 c 0
 170 390 125 435 125 468 c 2
 125 563 l 2
 125 596 170 641 203 641 c 0
238 579 m 2
 206 579 187 560 187 528 c 2
 187 503 l 2
 187 471 207 452 239 452 c 2
 261 452 l 2
 293 452 312 471 312 503 c 2
 312 528 l 2
 312 560 293 579 261 579 c 2
 238 579 l 2
EndSplineSet
Validated: 1
EndChar

StartChar: PLUS-MINUS
Encoding: 177 177 113
Width: 500
VWidth: 0
Flags: W
HStem: 62 62<94 406> 312 62<94 219 281 406>
VStem: 219 62<187 312 374 499>
LayerCount: 2
Back
Fore
SplineSet
219 499 m 1
 281 499 l 1
 281 374 l 1
 406 374 l 1
 406 312 l 1
 281 312 l 1
 281 187 l 1
 219 187 l 1
 219 312 l 1
 94 312 l 1
 94 374 l 1
 219 374 l 1
 219 499 l 1
94 124 m 1
 406 124 l 1
 406 62 l 1
 94 62 l 1
 94 124 l 1
EndSplineSet
Validated: 513
EndChar

StartChar: SUPERSCRIPT
Encoding: 178 178 114
Width: 500
VWidth: 0
Flags: W
HStem: 281 93<313 375> 281 62<219 313> 593 63<189.471 308.785>
VStem: 125 63<562 592.547> 313 62<343 374 530 589.869>
LayerCount: 2
Back
Fore
SplineSet
219 343 m 1x78
 313 343 l 1x78
 313 374 l 1
 375 374 l 1
 375 281 l 1xb8
 125 281 l 1
 125 343 l 1
 313 530 l 1
 313 549 l 2
 313 591 293 593 261 593 c 2
 239 593 l 2
 234 593 229 593 225 593 c 0
 202 593 188 592 188 573 c 0
 188 562 188 562 188 562 c 1
 125 562 l 1
 125 562 125 578 125 593 c 0
 125 627 171 656 204 656 c 0
 286 656 214 656 296 656 c 0
 329 656 373 610 374 577 c 0
 374 562 375 556 375 543 c 0
 375 516 375 516 375 516 c 2
 375 499 344 468 329 453 c 2
 219 343 l 1x78
EndSplineSet
Validated: 2097153
EndChar

StartChar: SUPERSCRIPT
Encoding: 179 179 115
Width: 500
VWidth: 0
Flags: W
HStem: 269 62<189.471 304.917> 425 63<219 309.95> 581 63<189.471 310.475>
VStem: 125 63<332.213 362 550 579.841> 312 63<339.073 419.656 491.797 579.841>
LayerCount: 2
Back
Fore
SplineSet
125 550 m 1
 125 550 125 550 125 565 c 0
 125 599 171 644 204 644 c 0
 286 644 214 644 296 644 c 0
 329 644 374 599 374 565 c 2
 374 519 l 2
 374 476 333 461 333 461 c 1
 333 461 375 450 375 404 c 2
 375 347 l 2
 375 314 330 269 297 269 c 0
 214 269 287 269 204 269 c 0
 171 269 125 313 125 347 c 0
 125 362 125 362 125 362 c 1
 188 362 l 1
 188 362 188 362 188 351 c 0
 188 332 202 331 225 331 c 0
 229 331 234 331 239 331 c 2
 261 331 l 2
 293 331 312 350 312 382 c 2
 312 394 l 2
 312 416 293 425 261 425 c 2
 261 425 219 425 219 425 c 1
 219 488 l 1
 261 488 l 2
 292 488 312 493 312 525 c 2
 312 570 l 2
 312 580 297 581 273 581 c 0
 269 581 265 581 260 581 c 2
 239 581 l 2
 234 581 229 581 225 581 c 0
 202 581 188 580 188 561 c 0
 188 550 188 550 188 550 c 1
 125 550 l 1
EndSplineSet
Validated: 2097153
EndChar

StartChar: ACUTE
Encoding: 180 180 116
Width: 500
VWidth: 0
Flags: W
HStem: 488 157
VStem: 187 168
LayerCount: 2
Back
Fore
SplineSet
355 645 m 25
 355 593 l 25
 240 488 l 25
 187 488 l 25
 187 534 l 25
 308 645 l 25
 355 645 l 25
EndSplineSet
Validated: 1
EndChar

StartChar: MICRO
Encoding: 181 181 117
Width: 500
VWidth: 0
Flags: W
HStem: -1 62<383.627 469> 11 62<124 305.622> 417 20G<62 124 313 375>
VStem: 62 62<-189 11 73 437> 313 62<80.6992 437>
LayerCount: 2
Back
Fore
SplineSet
124 -189 m 1x78
 62 -189 l 1
 62 23 62 437 62 437 c 1
 124 437 l 1
 124 73 l 1
 124 73 177 73 261 73 c 0x78
 293 73 313 92 313 124 c 0
 313 258 313 437 313 437 c 1
 375 437 l 1
 375 112 l 2
 375 84 393 61 426 61 c 0
 449 61 469 61 469 61 c 1
 469 -1 l 1
 469 -1 420 -1 391 -1 c 0xb8
 376 -1 341 13 337 28 c 1
 324 18 310 11 297 11 c 0
 208 11 124 11 124 11 c 1
 124 11 124 -153 124 -189 c 1x78
EndSplineSet
Validated: 1
EndChar

StartChar: PILCROW
Encoding: 182 182 118
Width: 500
VWidth: 0
Flags: W
HStem: 0 21G<219 281 376 438> 312 63<133.056 219> 562 63<132.857 219 281 376>
VStem: 62 63<382.083 553.944> 219 62<0 312 375 562> 376 62<0 562>
LayerCount: 2
Back
Fore
SplineSet
438 0 m 1
 376 0 l 1
 376 562 l 1
 281 562 l 1
 281 0 l 1
 219 0 l 1
 219 312 l 1
 219 312 168 312 141 312 c 0
 108 312 62 357 62 390 c 0
 62 448 62 488 62 546 c 0
 62 579 107 625 141 625 c 0
 168 625 219 625 219 625 c 1
 281 625 l 1
 376 625 l 1
 438 625 l 1
 438 0 l 1
219 375 m 1
 219 562 l 1
 219 562 200 562 177 562 c 0
 144 562 125 543 125 511 c 0
 125 463 125 474 125 426 c 0
 125 394 144 375 176 375 c 0
 199 375 219 375 219 375 c 1
EndSplineSet
Validated: 1
EndChar

StartChar: MIDDLE
Encoding: 183 183 119
Width: 500
VWidth: 0
Flags: W
HStem: 269 94<219 281>
VStem: 219 62<269 363>
LayerCount: 2
Back
Fore
SplineSet
219 363 m 1
 281 363 l 1
 281 269 l 1
 219 269 l 1
 219 363 l 1
EndSplineSet
Validated: 1
EndChar

StartChar: CEDILLA
Encoding: 184 184 120
Width: 500
VWidth: 0
Flags: W
HStem: -186 62<156 210.917> -20 20G<218 282>
VStem: 218 64<-116.91 0>
LayerCount: 2
Back
Fore
SplineSet
218 0 m 25
 282 0 l 25
 282 0 282 -70 282 -109 c 0
 282 -142 236 -186 203 -186 c 0
 187 -186 156 -186 156 -186 c 25
 156 -124 l 25
 156 -124 156 -124 167 -124 c 0
 199 -124 218 -105 218 -73 c 0
 218 -38 218 0 218 0 c 25
EndSplineSet
Validated: 1
EndChar

StartChar: SUPERSCRIPT
Encoding: 185 185 121
Width: 500
VWidth: 0
Flags: W
HStem: 269 62<156 219 281 344>
VStem: 219 62<331 550>
LayerCount: 2
Back
Fore
SplineSet
156 519 m 25
 156 582 l 25
 219 644 l 25
 281 644 l 25
 281 331 l 25
 344 331 l 25
 344 269 l 25
 156 269 l 25
 156 331 l 25
 219 331 l 25
 219 550 l 25
 187 519 l 25
 156 519 l 25
EndSplineSet
Validated: 2097153
EndChar

StartChar: MASCULINE
Encoding: 186 186 122
Width: 500
VWidth: 0
Flags: W
HStem: 238 62<125 375> 363 62<195.073 303.944> 581 62<195.073 304.917>
VStem: 125 62<433.073 572.927> 312 63<433.073 572.927>
LayerCount: 2
Back
Fore
SplineSet
125 300 m 1
 375 300 l 1
 375 238 l 1
 125 238 l 1
 125 300 l 1
203 643 m 0
 286 643 214 643 297 643 c 0
 330 643 375 598 375 565 c 2
 375 441 l 2
 375 408 329 363 296 363 c 0
 214 363 285 363 203 363 c 0
 170 363 125 408 125 441 c 2
 125 565 l 2
 125 598 170 643 203 643 c 0
238 581 m 2
 206 581 187 562 187 530 c 2
 187 476 l 2
 187 444 207 425 239 425 c 2
 261 425 l 2
 293 425 312 444 312 476 c 2
 312 530 l 2
 312 562 293 581 261 581 c 2
 238 581 l 2
EndSplineSet
Validated: 1
EndChar

StartChar: RIGHT-POINTING
Encoding: 187 187 123
Width: 500
VWidth: 0
Flags: W
HStem: 50 313
LayerCount: 2
Back
Fore
SplineSet
156 363 m 25
 298 221 l 25
 298 191 l 25
 157 50 l 25
 64 50 l 25
 204 191 l 25
 204 221 l 25
 62 363 l 25
 156 363 l 25
312 363 m 25
 454 221 l 25
 454 191 l 25
 313 50 l 25
 220 50 l 25
 360 191 l 25
 360 221 l 25
 218 363 l 25
 312 363 l 25
EndSplineSet
Validated: 513
EndChar

StartChar: VULGAR
Encoding: 188 188 124
Width: 500
VWidth: 0
Flags: W
HStem: -31 63<281 343 405 469> 375 62<31 94 156 219> 625 21G<31 82.6452>
VStem: 94 62<437 656> 219 62<32 218> 343 62<-125 -31 32 156>
LayerCount: 2
Back
Fore
SplineSet
406 531 m 25
 469 531 l 25
 469 483 l 25
 94 108 l 25
 31 108 l 25
 31 155 l 25
 406 531 l 25
219 218 m 1
 281 218 l 1
 281 32 l 1
 343 32 l 1
 343 156 l 1
 405 156 l 1
 405 32 l 1
 469 32 l 1
 469 -31 l 1
 405 -31 l 1
 405 -125 l 1
 343 -125 l 1
 343 -31 l 1
 281 -31 l 1
 219 -31 l 1
 219 32 l 1
 219 218 l 1
31 625 m 25
 31 688 l 25
 94 750 l 25
 156 750 l 25
 156 437 l 25
 219 437 l 25
 219 375 l 25
 31 375 l 25
 31 437 l 25
 94 437 l 25
 94 656 l 25
 62 625 l 25
 31 625 l 25
EndSplineSet
Validated: 2097153
EndChar

StartChar: VULGAR
Encoding: 189 189 125
Width: 500
VWidth: 0
Flags: W
HStem: -126 93<407 469> -126 62<313 407> 186 63<283.471 402.785> 376 62<31 94 156 219> 626 21G<31 82.6452>
VStem: 94 62<438 657> 219 63<155 185.547> 407 62<-64 -33 123 182.869>
LayerCount: 2
Back
Fore
SplineSet
406 531 m 25x3f
 469 531 l 25
 469 483 l 25
 94 108 l 25
 31 108 l 25
 31 155 l 25
 406 531 l 25x3f
313 -64 m 1x7f
 407 -64 l 1x7f
 407 -33 l 1
 469 -33 l 1
 469 -126 l 1xbf
 219 -126 l 1
 219 -64 l 1
 407 123 l 1
 407 142 l 2
 407 184 387 186 355 186 c 2
 333 186 l 2
 328 186 323 186 319 186 c 0
 296 186 282 185 282 166 c 0
 282 155 282 155 282 155 c 1
 219 155 l 1
 219 155 219 171 219 186 c 0
 219 210 265 249 298 249 c 0
 380 249 308 249 390 249 c 0
 423 249 467 203 468 170 c 0
 468 155 469 149 469 136 c 0
 469 109 469 109 469 109 c 2
 469 92 438 61 423 46 c 2
 313 -64 l 1x7f
31 626 m 25
 31 689 l 25
 94 751 l 25
 156 751 l 25
 156 438 l 25
 219 438 l 25
 219 376 l 25
 31 376 l 25
 31 438 l 25
 94 438 l 25
 94 657 l 25
 62 626 l 25
 31 626 l 25
EndSplineSet
Validated: 2097153
EndChar

StartChar: VULGAR
Encoding: 190 190 126
Width: 500
VWidth: 0
Flags: W
HStem: -31 63<281 343 405 469> 374 62<95.471 210.917> 530 63<125 215.95> 686 63<95.471 216.475>
VStem: 31 63<437.213 467 655 684.841> 219 62<32 218 444.073 524.656 596.797 684.841> 343 62<-125 -31 32 156>
LayerCount: 2
Back
Fore
SplineSet
406 531 m 25
 469 531 l 25
 469 483 l 25
 94 108 l 25
 31 108 l 25
 31 155 l 25
 406 531 l 25
219 218 m 1
 281 218 l 1
 281 32 l 1
 343 32 l 1
 343 156 l 1
 405 156 l 1
 405 32 l 1
 469 32 l 1
 469 -31 l 1
 405 -31 l 1
 405 -125 l 1
 343 -125 l 1
 343 -31 l 1
 281 -31 l 1
 219 -31 l 1
 219 32 l 1
 219 218 l 1
31 655 m 1
 31 655 31 655 31 670 c 0
 31 704 77 749 110 749 c 0
 192 749 120 749 202 749 c 0
 235 749 280 704 280 670 c 2
 280 624 l 2
 280 581 239 566 239 566 c 1
 239 566 281 555 281 509 c 2
 281 452 l 2
 281 419 236 374 203 374 c 0
 120 374 193 374 110 374 c 0
 77 374 31 418 31 452 c 0
 31 467 31 467 31 467 c 1
 94 467 l 1
 94 467 94 467 94 456 c 0
 94 437 108 436 131 436 c 0
 135 436 140 436 145 436 c 2
 167 436 l 2
 199 436 218 455 218 487 c 2
 218 499 l 2
 218 521 199 530 167 530 c 2
 167 530 125 530 125 530 c 1
 125 593 l 1
 167 593 l 2
 198 593 218 598 218 630 c 2
 218 675 l 2
 218 685 203 686 179 686 c 0
 175 686 171 686 166 686 c 2
 145 686 l 2
 140 686 135 686 131 686 c 0
 108 686 94 685 94 666 c 0
 94 655 94 655 94 655 c 1
 31 655 l 1
EndSplineSet
Validated: 2097153
EndChar

StartChar: LATIN
Encoding: 198 198 134
Width: 500
VWidth: 0
Flags: W
HStem: 1 62<320.056 438> 282 62<124 249 312 438> 563 62<131.425 241.891 320.109 437>
VStem: 62 62<0 282 344 554.303> 249 63<71.0731 282 344 554.984>
CounterMasks: 1 e0
LayerCount: 2
Back
Fore
SplineSet
249 512 m 2
 249 544 230 563 198 563 c 2
 177 563 l 2
 144 563 124 545 124 512 c 0
 124 344 l 1
 249 344 l 1
 249 512 l 2
62 0 m 1
 62 0 62 336 62 548 c 0
 62 581 108 625 141 625 c 0
 224 625 151 625 234 625 c 0
 249 625 266 616 281 603 c 1
 296 616 313 625 328 625 c 2
 328 625 437 625 437 625 c 1
 437 563 l 1
 364 563 l 2
 331 563 312 543 312 511 c 0
 312 439 312 344 312 344 c 1
 438 344 l 1
 438 282 l 1
 312 282 l 1
 312 282 312 187 312 115 c 0
 312 83 331 63 363 63 c 2
 363 63 438 63 438 63 c 1
 438 1 l 1
 328 1 l 2
 295 1 249 46 249 79 c 2
 249 282 l 1
 124 282 l 1
 124 0 l 1
 62 0 l 1
EndSplineSet
Validated: 2097153
EndChar

StartChar: LATIN
Encoding: 199 199 135
Width: 500
VWidth: 0
Flags: W
HStem: -179 62<196 250.917> 1 62<132.425 258 322 438> 563 62<133.073 438>
VStem: 63 62<70.0904 554.927> 258 64<-109.91 1>
LayerCount: 2
Back
Fore
SplineSet
63 78 m 0
 63 259 63 366 63 547 c 0
 63 580 108 625 141 625 c 0
 254 625 438 625 438 625 c 1
 438 563 l 1
 438 563 287 563 178 563 c 0
 145 563 125 543 125 511 c 0
 125 341 125 284 125 114 c 0
 125 82 144 63 176 63 c 0
 285 63 438 63 438 63 c 1
 438 1 l 1
 322 1 l 1
 322 -102 l 2
 322 -135 276 -179 243 -179 c 0
 227 -179 196 -179 196 -179 c 1
 196 -117 l 1
 196 -117 196 -117 207 -117 c 0
 239 -117 258 -98 258 -66 c 2
 258 1 l 1
 142 1 l 2
 109 1 63 45 63 78 c 0
EndSplineSet
Validated: 2097153
EndChar

StartChar: LATIN
Encoding: 208 208 144
Width: 500
VWidth: 0
Flags: W
HStem: 0 63<125 367.143> 280 63<0 62 125 249> 563 63<125 366.314>
VStem: 62 63<63 280 343 563> 375 63<71.0557 554.944>
LayerCount: 2
Back
Fore
SplineSet
62 626 m 1
 62 626 246 626 360 626 c 0
 393 626 438 580 438 547 c 0
 438 366 438 260 438 79 c 0
 438 46 393 0 359 0 c 0
 246 0 62 0 62 0 c 1
 62 280 l 1
 0 280 l 1
 0 343 l 1
 62 343 l 1
 62 626 l 1
125 343 m 1
 249 343 l 1
 249 280 l 1
 125 280 l 1
 125 63 l 1
 125 63 239 63 323 63 c 0
 355 63 375 82 375 114 c 0
 375 276 375 341 375 511 c 0
 375 543 356 563 324 563 c 0
 125 563 l 1
 125 343 l 1
EndSplineSet
Validated: 2097153
EndChar

StartChar: MULTIPLICATION
Encoding: 215 215 151
Width: 500
VWidth: 0
Flags: W
LayerCount: 2
Back
Fore
SplineSet
394 494 m 25
 438 450 l 25
 294 306 l 25
 438 162 l 25
 394 118 l 25
 250 262 l 25
 106 118 l 25
 62 162 l 25
 206 306 l 25
 62 450 l 25
 106 494 l 25
 250 350 l 25
 394 494 l 25
EndSplineSet
Validated: 1
EndChar

StartChar: LATIN
Encoding: 216 216 152
Width: 500
VWidth: 0
Flags: W
HStem: -12 62<149.33 367.927> 550 62<132.073 314>
VStem: 62 62<161 541.927> 376 62<58.0731 507.859>
LayerCount: 2
Back
Fore
SplineSet
437 675 m 1
 437 633 l 1
 413 584 l 1
 427 569 438 550 438 534 c 0
 438 353 438 247 438 66 c 0
 438 33 393 -12 360 -12 c 0
 278 -12 222 -12 140 -12 c 0
 133 -12 125 -10 118 -6 c 1
 84 -74 l 1
 31 -74 l 1
 30 -32 l 1
 67 45 l 1
 64 52 62 59 62 66 c 0
 62 247 62 353 62 534 c 0
 62 567 107 612 140 612 c 2
 344 612 l 1
 375 675 l 1
 437 675 l 1
175 550 m 2
 143 550 124 531 124 499 c 2
 124 161 l 1
 314 550 l 1
 175 550 l 2
375 508 m 2
 149 56 l 1
 156 52 166 50 176 50 c 0
 248 50 253 50 325 50 c 0
 357 50 376 69 376 101 c 0
 376 271 376 329 376 499 c 0
 376 502 376 505 375 508 c 2
EndSplineSet
Validated: 2097153
EndChar

StartChar: LATIN
Encoding: 222 222 158
Width: 500
VWidth: 0
Flags: W
HStem: 0 62<125 367.927> 375 62<125 367.927>
VStem: 62 63<-125 0 62 375 437 562> 376 62<70.0731 366.927>
LayerCount: 2
Back
Fore
SplineSet
125 375 m 25
 125 62 l 25
 125 62 240 62 325 62 c 0
 357 62 376 81 376 113 c 0
 376 210 376 226 376 323 c 0
 376 355 357 375 325 375 c 0
 240 375 125 375 125 375 c 25
62 562 m 25
 125 562 l 25
 125 437 l 25
 125 437 271 437 360 437 c 0
 393 437 438 392 438 359 c 0
 438 252 438 185 438 78 c 0
 438 45 393 0 360 0 c 0
 271 0 125 0 125 0 c 25
 125 -125 l 25
 62 -125 l 25
 62 562 l 25
EndSplineSet
Validated: 2097153
EndChar

StartChar: LATIN
Encoding: 223 223 159
Width: 500
VWidth: 0
Flags: W
HStem: 0 62<161.777 366.314> 312 62<124 304.301> 562 62<124 304.917>
VStem: 62 62<0 42 102.936 312 374 562> 312 63<381.794 553.927> 375 63<70.2723 303.712>
LayerCount: 2
Back
Fore
SplineSet
62 0 m 1xf4
 62 624 l 1
 297 624 l 2
 330 624 375 579 375 546 c 2
 375 407 l 2xf8
 375 361 367 363 351 353 c 0
 351 350 438 344 438 280 c 2
 438 78 l 2
 438 46 393 0 360 0 c 2
 360 0 252 0 187 0 c 0
 171 0 135 15 124 42 c 1
 124 22 124 0 124 0 c 1
 62 0 l 1xf4
124 374 m 1
 261 374 l 2
 293 374 312 394 312 426 c 2
 312 511 l 2
 312 543 293 562 261 562 c 2
 124 562 l 1
 124 374 l 1
211 62 m 0
 244 62 324 62 324 62 c 2
 356 62 375 82 375 114 c 2
 375 260 l 2xf4
 375 292 356 312 324 312 c 2
 123 312 l 1
 123 312 123 243 123 188 c 0
 123 112 165 62 211 62 c 0
EndSplineSet
Validated: 2097153
EndChar

StartChar: LATIN
Encoding: 230 230 166
Width: 500
VWidth: 0
Flags: W
HStem: -12 62<132.073 249.149 319.148 500> 171 62<312 438> 191 62<132.073 250> 363 62<93 242.301 319.841 438>
VStem: 62 62<58.0731 183.126> 250 62<57.0831 171 253 355.248> 438 62<233 363>
CounterMasks: 1 0e
LayerCount: 2
Back
Fore
SplineSet
229 -12 m 0xde
 189 -12 140 -12 140 -12 c 2
 107 -12 62 33 62 66 c 0
 62 111 62 130 62 175 c 0
 62 209 107 253 140 253 c 0
 228 253 250 253 250 253 c 1xbe
 250 253 250 288 250 311 c 0
 250 344 231 363 199 363 c 0
 102 363 93 363 93 363 c 1
 93 425 l 1
 93 425 133 425 234 425 c 0
 249 425 266 416 281 403 c 1
 295 416 312 425 327 425 c 0
 440 425 500 425 500 425 c 1
 500 171 l 1
 312 171 l 1
 312 171 312 137 312 101 c 0
 312 69 331 50 363 50 c 0
 472 50 500 50 500 50 c 1
 500 -12 l 1
 500 -12 441 -12 328 -12 c 0
 314 -12 297 -4 283 9 c 1
 268 -4 249 -12 229 -12 c 0xde
175 191 m 2
 143 191 124 172 124 140 c 0
 124 104 124 137 124 101 c 0
 124 69 143 50 175 50 c 2
 175 50 250 50 250 50 c 1
 250 66 l 1
 250 191 l 1
 175 191 l 2
312 233 m 1xde
 438 233 l 1
 438 363 l 1
 363 363 l 2
 331 363 312 343 312 311 c 0
 312 275 312 233 312 233 c 1xde
EndSplineSet
Validated: 2097153
EndChar

StartChar: LATIN
Encoding: 231 231 167
Width: 500
VWidth: 0
Flags: W
HStem: -180 62<196 250.161> 0 62<133.056 258 322 438> 375 62<132.083 438>
VStem: 62 63<70.0731 367.91> 258 64<-109.303 0>
LayerCount: 2
Back
Fore
SplineSet
140 437 m 0
 253 437 438 437 438 437 c 1
 438 375 l 1
 438 375 285 375 176 375 c 0
 144 375 125 356 125 324 c 0
 125 227 125 210 125 113 c 0
 125 81 144 62 176 62 c 0
 285 62 438 62 438 62 c 1
 438 0 l 1
 322 0 l 1
 322 -103 l 2
 322 -136 276 -180 242 -180 c 0
 226 -180 196 -180 196 -180 c 1
 196 -118 l 1
 196 -118 196 -118 206 -118 c 0
 238 -118 258 -99 258 -67 c 2
 258 0 l 1
 141 0 l 2
 108 0 62 45 62 78 c 0
 62 185 62 253 62 360 c 0
 62 393 107 437 140 437 c 0
EndSplineSet
Validated: 2097153
EndChar

StartChar: LATIN
Encoding: 236 236 172
Width: 500
VWidth: 0
Flags: W
HStem: 0 21G<219 281> 417 20G<219 281> 501 157
VStem: 166 168 219 62<0 437>
LayerCount: 2
Back
Fore
SplineSet
219 437 m 25xe8
 281 437 l 25
 281 0 l 25
 219 0 l 25
 219 437 l 25xe8
EndSplineSet
Refer: 64 96 S 1 0 0 1 -10 13 2
Validated: 2097153
EndChar

StartChar: LATIN
Encoding: 237 237 173
Width: 500
VWidth: 0
Flags: W
HStem: 0 21G<219 281> 417 20G<219 281> 500 157
VStem: 175 168 219 62<0 437>
LayerCount: 2
Back
Fore
SplineSet
219 437 m 25xe8
 281 437 l 25
 281 0 l 25
 219 0 l 25
 219 437 l 25xe8
EndSplineSet
Refer: 116 180 S 1 0 0 1 -12 12 2
Validated: 2097153
EndChar

StartChar: LATIN
Encoding: 238 238 174
Width: 500
VWidth: 0
Flags: W
HStem: 0 21G<219 281> 417 20G<219 281> 596 84<234 266>
VStem: 91 318 219 62<0 437>
LayerCount: 2
Back
Fore
SplineSet
219 437 m 25xe8
 281 437 l 25
 281 0 l 25
 219 0 l 25
 219 437 l 25xe8
EndSplineSet
Refer: 62 94 N 1 0 0 1 0 5 2
Validated: 2097153
EndChar

StartChar: LATIN
Encoding: 239 239 175
Width: 500
VWidth: 0
Flags: W
HStem: 0 21G<219 281> 417 20G<219 281> 531 93<125 187 313 375>
VStem: 125 62<531 624> 219 62<0 437> 313 62<531 624>
CounterMasks: 1 1c
LayerCount: 2
Back
Fore
SplineSet
219 437 m 1
 281 437 l 1
 281 0 l 1
 219 0 l 1
 219 437 l 1
EndSplineSet
Refer: 104 168 N 1 0 0 1 0 31 2
Validated: 1
EndChar

StartChar: LATIN
Encoding: 240 240 176
Width: 500
VWidth: 0
Flags: W
HStem: 1 62<132.073 366.944> 375 62<132.073 305>
VStem: 62 62<71.0731 366.927> 375 63<71.0731 367.08>
LayerCount: 2
Back
Fore
SplineSet
175 375 m 0
 143 375 124 356 124 324 c 0
 124 154 124 284 124 114 c 0
 124 82 144 63 176 63 c 0
 248 63 252 63 324 63 c 0
 356 63 375 82 375 114 c 0
 375 284 375 154 375 324 c 0
 375 356 356 375 324 375 c 0
 251 375 248 375 175 375 c 0
266 650 m 1
 311 650 l 1
 311 603 l 1
 264 556 l 1
 398 422 l 2
 420 406 438 380 438 359 c 0
 438 178 438 260 438 79 c 0
 438 46 392 1 359 1 c 0
 277 1 222 1 140 1 c 0
 107 1 62 46 62 79 c 0
 62 260 62 178 62 359 c 0
 62 392 107 437 140 437 c 2
 305 437 l 1
 225 517 l 1
 171 462 l 1
 124 462 l 1
 124 510 l 1
 171 556 l 1
 124 603 l 1
 124 650 l 1
 167 650 l 1
 215 601 l 1
 266 650 l 1
EndSplineSet
Validated: 2097153
EndChar

StartChar: DIVISION
Encoding: 247 247 183
Width: 500
VWidth: 0
Flags: W
HStem: 94 93<219 281> 250 62<94 406> 375 93<219 281>
VStem: 219 62<94 187 375 468>
CounterMasks: 1 e0
LayerCount: 2
Back
Fore
SplineSet
219 94 m 1
 219 187 l 1
 281 187 l 1
 281 94 l 1
 219 94 l 1
219 375 m 1
 219 468 l 1
 281 468 l 1
 281 375 l 1
 219 375 l 1
94 312 m 1
 406 312 l 1
 406 250 l 1
 94 250 l 1
 94 312 l 1
EndSplineSet
Validated: 1
EndChar

StartChar: LATIN
Encoding: 248 248 184
Width: 500
VWidth: 0
Flags: W
HStem: 0 62<148.376 366.944> 374 62<133.073 352.624>
VStem: 63 62<139 365.927> 375 63<70.0731 295>
LayerCount: 2
Back
Fore
SplineSet
375 295 m 1
 148 69 l 1
 156 64 166 62 177 62 c 0
 249 62 252 62 324 62 c 0
 356 62 375 81 375 113 c 2
 375 295 l 1
176 374 m 0
 144 374 125 355 125 323 c 2
 125 139 l 1
 353 367 l 1
 345 372 335 374 324 374 c 0
 251 374 249 374 176 374 c 0
31 -1 m 1
 31 45 l 1
 63 77 l 1
 63 77 63 78 63 78 c 2
 63 259 63 177 63 358 c 0
 63 391 108 436 141 436 c 0
 224 436 277 436 360 436 c 0
 374 436 389 428 403 417 c 1
 422 436 l 1
 469 436 l 1
 469 389 l 1
 438 358 l 1
 438 177 438 259 438 78 c 0
 438 45 392 0 359 0 c 0
 277 0 223 0 141 0 c 0
 127 0 112 8 98 19 c 1
 78 -1 l 1
 31 -1 l 1
EndSplineSet
Validated: 2097153
EndChar

StartChar: LATIN
Encoding: 254 254 190
Width: 500
VWidth: 0
Flags: W
HStem: 0 62<125 367.927> 375 62<125 367.927> 604 20G<62 125>
VStem: 62 63<-188 0 62 375 437 624> 376 62<70.0731 366.927>
LayerCount: 2
Back
Fore
SplineSet
125 375 m 25
 125 62 l 25
 125 62 240 62 325 62 c 0
 357 62 376 81 376 113 c 0
 376 210 376 226 376 323 c 0
 376 355 357 375 325 375 c 0
 240 375 125 375 125 375 c 25
62 624 m 25
 125 624 l 25
 125 437 l 25
 125 437 271 437 360 437 c 0
 393 437 438 392 438 359 c 0
 438 252 438 185 438 78 c 0
 438 45 393 0 360 0 c 0
 271 0 125 0 125 0 c 25
 125 -188 l 25
 62 -188 l 25
 62 624 l 25
EndSplineSet
Validated: 2097153
EndChar

